<svg xmlns="http://www.w3.org/2000/svg" width="180.139" height="168.427" viewBox="0 0 180.139 168.427">
  <g id="feature1" data-name="feature1" transform="translate(-851.126 728)">
    <path id="Path_1" data-name="Path 1" d="M1647.74,156.3c-1.4,4.257-4.91,8.912-9.561,10.373-51.181,3.7-103.436.19-154.927,1.372-3.281,0-6.715-.376-9.274-2.5-3.285-2.39-4.63-6.414-4.526-10.408-.153-13.046.573-26.107-.973-39.038-.082-19.752-.044-39.519-.014-59.3.227-2.425.016-6.278,1.8-7.472,13.969,1.686,167.655-4.417,177.937,2.248-.209,29.559,1.213,75.982-.444,104.689Zm-46.914-35.894a15.675,15.675,0,0,0-5.242-.106c-3.733.973-5.505,3.483-5.671,7.458-.142,2.2-.077,5.334-.05,7.652a10.523,10.523,0,0,0,.755,4.268c2.03,3.564,8.179,2.484,11.763,2.678,6.583.028,10.78.6,11.06-7.518.079-1.184.056-2.4.059-3.6.042-4.2.317-9.3-4.51-10.1-2.622-.473-5.473-.251-8.085-.725Zm-34.41,19.933a7.851,7.851,0,0,0,.865-3.916c.039-1.939.008-3.915.017-5.861-.094-3.015.485-6.65-1.733-8.858-2.514-2.336-9.374-1.73-12.7-1.55-4.141.315-7.451,2.051-7.725,6.459a22.894,22.894,0,0,0-.115,2.468c.1,3.721-.39,7.363,1.1,10.5,1.835,3.221,6.028,2.555,9.317,2.647,1.811,0,3.63.007,5.439,0,1.952-.052,4.328-.092,5.5-1.835Zm-43.376-.891c.692-2.8.48-5.853.516-8.782-.055-2.256.206-4.67-.463-6.836-1.531-4.754-7.8-3.668-12.1-3.857a21.894,21.894,0,0,0-5.544.488c-3.041.824-4.185,3.835-4.405,6.915-.227,2.465.561,4.881.88,7.31.433,2.131.085,4.755,1.609,6.468,1.409,1.637,6.727,1.1,9.8,1.181,1.733-.013,3.44-.032,4.842-.069,2.882-.071,4.3-.649,4.844-2.753Zm22.56-64.029c-.73,2.609-.59,5.951-.531,8.75.1,3.4.949,6.465,4.4,7.706,3.107,1.022,6.572.971,9.869.816,8.32-.419,8.078-4.014,7.977-11.093.046-6.7.456-11.189-7.588-11.064-5.037.244-12.431-1.478-14.1,4.813Zm-22.874,14.414c1.278-2.57.757-5.718.872-8.524-.062-3.018.277-6.025-1.065-8.366-1.654-2.611-5.171-2.4-7.916-2.44-3.015.081-6.6-.312-9.126.668-2.19.779-2.97,3.1-3.112,5.283-.138,1.86-.056,3.776-.077,5.648.043,3.662-.6,8.731,3.651,10.029,2.868.877,6.036.622,9.011.646,2.779-.134,6.336-.265,7.73-2.884Zm88.9-.033c.957-1.64.847-3.787.878-5.679q.006-2.547,0-5.093c.018-3.465-.229-7-3.748-8.009-3.365-.865-7-.407-10.452-.5-5.07.161-7.2,1.573-7.187,6.85-.041,2.734-.021,6.51.06,9.247.022,2.887.883,4.94,4.082,5.623a32.622,32.622,0,0,0,8.473.463c2.754-.265,6.249-.27,7.86-2.85Z" transform="translate(-617.304 -727.999)" fill="#00d1d6"/>
    <path id="Path_2" data-name="Path 2" d="M1647.9,30.752c-.519,2.2-1.145,6.848-2.58,7.254-2.657.082-13.54.108-28.692.152-47.7.061-135.789.219-146.395-.1-1.914-.924-1.723-5.25-1.729-7.3.689-6.429,1.111-13.015,1.9-19.49a19.4,19.4,0,0,1,1.007-5.589,6.045,6.045,0,0,1,4.563-3.589A75.837,75.837,0,0,1,1487.846.537c3.492.136,7.021-1.282,10.3.01,4.1,1.845,2.752,6.634,2.8,10.266.13,3.285.353,7.757,2.094,10.133,1.88,2.8,5.3,1.215,6.4-1.431,2.274-4.489.772-10.628,2.335-15.412.954-2.481,3.235-3.252,5.852-3.506C1542.213.3,1566.8.58,1591.375.492c16.006-.592,5.5,18.3,14.8,21.775,6.454.475,6.391-7.508,6.3-12.557-.221-4.211.4-8.335,4.969-8.837,21.24-3.77,33.977,8.217,30.466,29.8Z" transform="translate(-617.304 -727.999)" fill="#ff6168"/>
  </g>
</svg>
