<svg xmlns="http://www.w3.org/2000/svg" width="199.233" height="177.591" viewBox="0 0 199.233 177.591">
  <g id="feature4" data-name="feature4" transform="translate(-848.071 -420.076)">
    <path id="Path_24" data-name="Path 24" d="M1498.285,1242.992q20.773-14.463,41.4-29.034c4.009-2.745,8.02-5.625,12.052-8.51,4.149-2.631,8.065-6.684,13.257-6.666,3.429.135,6.492,2.269,9.276,4.145,2.107,1.447,4.166,2.913,6.216,4.364q14.543,10.077,28.991,20.243c6.267,4.5,12.561,8.8,18.874,13.175,3.681,2.625,7.647,5.519,9.87,9.557,2.9,5.247,2.454,10.907,2.063,16.99-.079,2.009-.033,4.072-.045,6.093.042,5.477-.847,10.2-.893,15.571.043,5.159.861,9.764.89,14.93a17.713,17.713,0,0,0,.841,6.292c1.44,3.838,6.365,3.363,9.478,5.063,2.723,1.379,3.313,5.224,1.575,7.613-1.634,2.51-5.586,2.868-8.644,2.819-53.126-.077-106.255.156-159.408-.082-2.219-.159-4.292-.61-5.626-1.807-2.488-2.09-1.733-5.988.845-7.644,4.671-2.995,9.7-2.538,10.365-9.542.586-17.06-.412-34.3.41-51.391.43-5.307,3.9-9.279,8.143-12.133Zm40.265-5.282c-7.331,4.155-10.309,12.788-9.274,20.873,1.195,8.438,5.655,15.9,11.532,21.92a87.543,87.543,0,0,0,11.411,10.4c3.621,2.644,7.112,5.616,11.255,6.953,4.187,1.183,7.647-2.141,10.905-4.372,1.574-1.123,3.053-2.366,4.544-3.609a104.907,104.907,0,0,0,10.58-9.647,39.146,39.146,0,0,0,8.366-10.94c5.065-10.035,4.3-23.518-5.177-30.664-3.766-2.815-8.09-3.682-12.962-3.549a38.234,38.234,0,0,0-11.008,1.974c-4.273,1.23-8.394-.509-12.529-1.424-5.733-.987-12.509-1.082-17.576,2.04Z" transform="translate(-617.304 -727.999)" fill="#00d1d6"/>
    <path id="Path_25" data-name="Path 25" d="M1633.861,1231.826c-8.328-5.8-16.662-11.782-24.941-17.709-5.633-4.066-11.408-7.89-16.964-12.052-3.83-2.819-7.786-5.488-11.671-8.2-3.871-2.658-7.679-5.8-11.778-8.1-5.035-2.774-9.607,1.389-13.616,4.133-2.585,1.839-5.273,3.8-7.847,5.67-6.935,4.995-13.957,9.908-20.923,14.813-5.585,4.038-11.221,8.125-16.937,12.017-6.108,4.38-12.085,8.574-18.194,12.958-3.17,2.305-6.34,4.533-9.539,6.758-6.321,4.578-10.942,2.156-14.069-4.573-7.136-15.685,6.183-26.281,17.67-34.48,7.014-4.806,13.784-10.021,20.8-14.826,5.616-4.288,11.428-8.281,17.212-12.346,7.424-5.237,14.669-10.684,22.143-15.819,3.27-2.309,6.355-4.55,9.587-6.887,3.088-2.075,6.369-5.079,10.214-5.108a9.6,9.6,0,0,1,4.886,1.566c2.6,1.613,4.982,3.419,7.535,5.152,7.242,5.151,14.448,10.17,21.635,15.416q26.517,18.931,52.7,38.379c6.876,5.107,13.643,12.523,12.767,21.789-.6,5.131-2.98,10.112-7.354,12.826-4.247,2.509-8.842-.992-12.4-3.514-3.656-2.557-7.235-5.219-10.86-7.817Z" transform="translate(-617.304 -727.999)" fill="#00d1d6"/>
    <path id="Path_26" data-name="Path 26" d="M1565.5,1284.013c-2.208.2-4.591-.941-6.683-2.27-7.751-4.632-15.281-13.007-17.709-21.829a12.47,12.47,0,0,1,1.236-9.554c2.362-4.014,7.566-6.848,11.646-3.438,1.759,1.292,3.147,3.3,4.886,4.7,3.666,3.214,7.862,3.456,11.668.4,3.221-2.27,6.174-6.335,10.4-6.4,2.814-.071,5.518,1.886,7.192,4.071a11.023,11.023,0,0,1,1.52,9.737c-1.571,5.614-5.268,10.026-9.383,14.147-3.786,3.881-9.243,9.7-14.7,10.425Z" transform="translate(-617.304 -727.999)" fill="#ff6168"/>
  </g>
</svg>
