<svg xmlns="http://www.w3.org/2000/svg" width="129.151" height="180.286" viewBox="0 0 129.151 180.286">
  <g id="feature8" data-name="feature8" transform="translate(-149.571 -1032.526)">
    <path id="Path_34" data-name="Path 34" d="M767.516,1770.318a25.594,25.594,0,0,0-.583,7.065c.172,50.476-.336,100.993.183,151.451a13.626,13.626,0,0,0,4.89,8.8c2.411,2.309,5.7,2.769,8.921,2.972,34.945-.444,70.136,1.062,104.97-.572,5.745-1.526,9.19-6.41,9.945-12.176.323-51.233.138-102.522.067-153.76-.33-4.585-2.132-8.854-6.048-11.388a15.078,15.078,0,0,0-7.642-2.157q-51.238-.021-102.588.014c-6.287.169-10.258,3.854-12.094,9.682Z" transform="translate(-617.304 -727.999)" fill="#00d1d6"/>
    <path id="Path_35" data-name="Path 35" d="M860.968,1821.8c-2.676,6.5-12.289-.068-12.264,6.122.144,3.884-.02,9.43-5.11,9.583-8.11.075-16.242.016-24.341.019-1.757.016-3.632-.58-4.4-2.256-.992-2.114-.591-4.8-.679-7.143a3.376,3.376,0,0,0-.694-2.4c-.681-.757-2.313-.708-3.447-.7-2.347-.054-5.133.314-6.955-1.25-1.491-1.275-1.626-3.443-1.631-5.317,0-7.437-.009-14.883.007-22.33-.005-5.567,4.417-5.07,8.584-5.038,1.518-.024,3.369.159,3.932-1.506.8-3.018-.655-6.929,1.315-9.573a6.758,6.758,0,0,1,5.592-2.3q10.333-.018,20.682,0c6.791-.4,7.269,4.787,7.14,10.249-.089,2.911,1.9,3.223,4.349,3.122,5.4-.192,8.454-.007,8.4,6.322q0,10.691,0,21.4a7.766,7.766,0,0,1-.454,2.925Z" transform="translate(-617.304 -727.999)" fill="#fff"/>
    <path id="Path_36" data-name="Path 36" d="M867.25,1853.4c4.373,1.924,2.494,7.653-1.947,7.988-21.751.244-43.528.006-65.284.08a14.111,14.111,0,0,1-3.9-.366,4.212,4.212,0,0,1-3.036-4.112c-.1-2.747,2.28-4.055,4.777-4.033,21.828-.046,43.782,0,65.814-.016a10.819,10.819,0,0,1,3.511.432Z" transform="translate(-617.304 -727.999)" fill="#fff"/>
    <path id="Path_37" data-name="Path 37" d="M866.364,1874.529c4.368,1.338,4.753,7.3-.4,7.752-23.288.048-46.716.475-69.962-.16a3.53,3.53,0,0,1-2.888-4.016c.3-2.877,2.807-3.987,5.464-4,21.4-.065,42.762,0,64.169-.023a12,12,0,0,1,3.545.42Z" transform="translate(-617.304 -727.999)" fill="#fff"/>
    <path id="Path_38" data-name="Path 38" d="M795.909,1901.443a3.976,3.976,0,0,1,1.191-7.789c22.524-.213,45.1-.019,67.633-.071,3.167-.172,5.974,2.111,4.768,5.4-.8,1.976-2.978,2.821-5.043,2.867-22.647-.307-45.693.716-68.477-.386Z" transform="translate(-617.304 -727.999)" fill="#fff"/>
    <path id="Path_39" data-name="Path 39" d="M795.285,1926.7c-3.326-1.543-2.658-6.523.969-7.333a14.814,14.814,0,0,1,3.654-.475c9.97.059,19.967-.126,29.927.073,3.1.18,6.144,1.777,5.344,5.329-.5,2.259-2.9,2.94-4.98,2.892-10.562.006-21.238,0-31.8,0a8.01,8.01,0,0,1-3.036-.457Z" transform="translate(-617.304 -727.999)" fill="#fff"/>
    <path id="Path_40" data-name="Path 40" d="M852.658,1800.859c-.563-1.685-3.014-1.067-4.847-1.207-1.862,0-3.884-.114-5.415-1.277l-.061-.046c-3.386-2.552-1.012-7.409-2.549-10.742-.755-1.346-2.434-1.5-3.886-1.522-2.684-.007-5.378,0-8.065,0-1.611.025-3.413-.146-4.323.6-1.6,1.289-.7,5.519-.972,7.513-.2,5.546-5.22,5.569-9.509,5.488-1.881,0-3.023.441-2.99,2.479,0,3.654-.222,9.877.22,13.106.56,1.538,2.351,1.045,4.025,1.16,2.293.007,5.009-.216,6.72,1.533,1.858,1.878,1.509,4.706,1.548,7.182a5.279,5.279,0,0,0,.573,3.044,3.244,3.244,0,0,0,2.651.987c2.97.028,5.985.009,8.972.015,1.628-.039,3.794.2,4.735-.673.983-.894.866-2.366.891-3.6a37.981,37.981,0,0,1,.132-4.728c.813-4.8,6.452-3.519,10.132-3.813" transform="translate(-617.304 -727.999)" fill="#ff6168"/>
  </g>
</svg>
