<svg xmlns="http://www.w3.org/2000/svg" width="195.821" height="195.964" viewBox="0 0 195.821 195.964">
  <g id="feature9" data-name="feature9" transform="translate(617.304 -1019.686)">
    <path id="Path_31" data-name="Path 31" d="M146.653,1920.851c3.008-1.532,5.868-3.67,8.87-5.156a56.984,56.984,0,0,0,7.55-4.247c2.44-1.588,5.01-2.74,7.559-4.1,3.2-1.793,6.383-3.959,9.647-5.491a79.017,79.017,0,0,0,9.343-5.23c1.985-1.23,4.507-1.931,5.753-3.967.977-1.552.251-3.884-1.227-5.159-1.882-1.729-4.907-2.158-7.611-2.03-6.427.557-11.368,5.058-16.912,7.833-6.671,3.36-13.231,6.83-19.894,10.112-5.973,3.651-12.466,6.836-18.556,10.091-3.155,1.53-6.377,2.965-9.45,4.667a70.035,70.035,0,0,1-7.205,3.579c-4.152,1.549-6.454-2.4-3.15-5.288,1.77-1.523,4.073-2.233,6.027-3.416,1.073-.6,2.085-1.3,3.132-1.937a65.8,65.8,0,0,1,8.305-4.342c3.11-1.48,6.091-3.2,9.126-4.711,2.3-1.149,4.707-2.3,7.051-3.482a8.446,8.446,0,0,0,3.4-2.676c1.035-1.6.089-3.718-1.328-4.842-2.669-2.28-6.832-2.534-10.06-1.558a16.509,16.509,0,0,0-3.239,1.408c-5.284,2.6-10.532,5.147-15.69,7.974-4.942,2.3-9.57,4.739-14.412,7.32-4.58,2.578-8.614,1.465-13.355.227-3.987-.9-7.778-2.419-11.677-3.633-4.065-1.222-8.266-2.124-12.335-3.255-6.576-1.65-13.246-4.424-19.82-5.708-4.4-.426-8.933-.126-13.335-.183-1.578.04-3.489.342-4.487,1.489-1.19,1.31-1.306,3.439-1.314,5.2q0,9.05,0,18.115a7.857,7.857,0,0,0,.881,4.286,4.6,4.6,0,0,0,2.745,1.877c1.892.54,3.835,1.089,5.778,1.541a121.465,121.465,0,0,0,14.183,3.823c10.032,2.486,19.879,5.417,29.909,7.86,4.605,1.2,9.172,2.427,13.751,3.655,4.4.785,9.07,3.718,13.342,1.06,2.984-1.838,5.943-3.483,9.032-5.087,3.028-1.652,5.988-3.5,9.006-5.087,3.835-2.243,7.811-4.405,11.723-6.511a84.266,84.266,0,0,1,8.839-4.972Zm-126.032,7.936c.79-.8.9-2.26.907-3.447,0-11.037,0-21.943,0-32.921.1-2.373-.7-4.378-3.328-4.492-4.428-.2-8.9-.051-13.287-.08-2.131.121-3.567-.246-4.452.924-.862,7.021-.276,32.662-.138,39.374a1.428,1.428,0,0,0,1.374,1.493c3.376.333,8.344.092,12.032.161,2.373-.136,5.32.431,6.83-.95Z" transform="translate(-617.304 -727.999)" fill="#00d1d6"/>
    <path id="Path_32" data-name="Path 32" d="M157.992,1784.325c.22-3.606-2.253-5.709-5.27-7.211l-.094-.056c-16.9-9.658-33.919-19.31-51.032-28.568-5.007-2.666-9.439,1.984-13.777,3.918-6.747,3.612-13.47,7.368-19.967,11.4-7.373,3.455-14.233,7.855-21.294,11.867-9,4.288-9.182,5.652-7.286,15.336a110.072,110.072,0,0,0,3.562,20.23,88.094,88.094,0,0,0,6.247,19.992,85.729,85.729,0,0,0,13.689,23.679c3.023,4.8,7.542,8.062,11.9,11.561a57.793,57.793,0,0,0,21.319,10.522c7.167,1.007,18.872-6.6,24.611-10.8,8.407-6.253,15.843-13.795,21.019-22.947a90.011,90.011,0,0,0,13.758-35.477c1.465-7.749,2.942-15.542,2.616-23.441m-59.657,60.064a32.007,32.007,0,1,1,32.01-32,32,32,0,0,1-32.01,32" transform="translate(-617.304 -727.999)" fill="#00d1d6"/>
    <path id="Path_33" data-name="Path 33" d="M93.316,1816.414c-2.195-.716-3.448-3.462-5.731-3.81-2.582-.159-5.7,3.59-4.831,5.928a6.758,6.758,0,0,0,1.568,2.414c1.941,2.021,4.087,3.971,6.063,6.108,4.56,5.406,6.955.531,10.436-2.862,3.121-2.908,5.966-6.073,9.03-9.076,2.764-2.678,5.365-5.651,8.163-8.227,1.159-1.114,2.532-2.527,2.766-4.1a4.41,4.41,0,0,0-3.6-4.66c-2.1-.269-3.623,1.675-5.353,3.333-1.1,1.1-2.232,2.161-3.315,3.281-2.077,2.113-4.146,4.322-6.23,6.376-2.443,2.235-5.25,6.37-8.872,5.333Z" transform="translate(-617.304 -727.999)" fill="#ff6168"/>
  </g>
</svg>
