<?xml version="1.0" encoding="UTF-8"?>
<!DOCTYPE svg PUBLIC "-//W3C//DTD SVG 1.1//EN" "http://www.w3.org/Graphics/SVG/1.1/DTD/svg11.dtd">
<svg xmlns="http://www.w3.org/2000/svg" version="1.1" width="1064px" height="1065px" style="shape-rendering:geometricPrecision; text-rendering:geometricPrecision; image-rendering:optimizeQuality; fill-rule:evenodd; clip-rule:evenodd" xmlns:xlink="http://www.w3.org/1999/xlink">
<g><path style="opacity:1" fill="#fefefe" d="M -0.5,-0.5 C 145.833,-0.5 292.167,-0.5 438.5,-0.5C 413.786,3.71831 400.286,18.385 398,43.5C 397.825,59.7407 397.325,75.9074 396.5,92C 302.974,108.132 230.474,155.632 179,234.5C 152.787,277.306 137.287,323.639 132.5,373.5C 131.621,382.162 130.955,390.995 130.5,400C 130.504,402.361 130.837,404.527 131.5,406.5C 131.5,406.833 131.5,407.167 131.5,407.5C 131.492,451.836 131.159,496.17 130.5,540.5C 126.222,611.693 100.056,673.36 52,725.5C 41,735.833 30,746.167 19,756.5C 9.27764,767.945 2.77764,780.945 -0.5,795.5C -0.5,530.167 -0.5,264.833 -0.5,-0.5 Z"/></g>
<g><path style="opacity:1" fill="#fefefe" d="M 446.5,-0.5 C 553.167,-0.5 659.833,-0.5 766.5,-0.5C 659.196,6.3788 578.029,55.7121 523,147.5C 506.265,177.871 495.432,210.205 490.5,244.5C 485.167,273.832 485.167,303.166 490.5,332.5C 505.912,423.232 552.912,492.066 631.5,539C 691.62,572.391 755.62,583.557 823.5,572.5C 830.108,571.904 836.442,570.57 842.5,568.5C 937.137,543.705 1003.97,486.371 1043,396.5C 1054.12,368.029 1060.96,338.695 1063.5,308.5C 1063.5,560.5 1063.5,812.5 1063.5,1064.5C 863.167,1064.5 662.833,1064.5 462.5,1064.5C 538.326,1051.01 585.992,1007.01 605.5,932.5C 606.043,932.44 606.376,932.107 606.5,931.5C 497.667,930.168 389.001,930.168 280.5,931.5C 294.976,997.49 334.976,1039.99 400.5,1059C 407.96,1060.86 415.293,1062.7 422.5,1064.5C 281.5,1064.5 140.5,1064.5 -0.5,1064.5C -0.5,984.5 -0.5,904.5 -0.5,824.5C 6.32853,850.642 21.9952,869.475 46.5,881C 52.285,883.43 58.285,884.93 64.5,885.5C 67.1667,886.167 69.8333,886.833 72.5,887.5C 72.5,887.833 72.5,888.167 72.5,888.5C 72.0618,888.435 71.7284,888.601 71.5,889C 72.7375,889.232 73.7375,889.732 74.5,890.5C 73.9907,891.341 74.6573,891.841 76.5,892C 318.5,892.667 560.5,892.667 802.5,892C 803.416,891.722 804.082,891.222 804.5,890.5C 807.01,890.946 809.01,890.28 810.5,888.5C 814.425,888.57 818.091,887.903 821.5,886.5C 868.427,873.723 889.594,843.056 885,794.5C 882.648,782.764 877.982,772.098 871,762.5C 856.721,748.221 842.387,733.887 828,719.5C 808.165,696.514 791.831,671.181 779,643.5C 674.37,641.337 586.037,602.67 514,527.5C 423.046,421.73 399.046,302.064 442,168.5C 453.866,138.099 468.866,109.432 487,82.5C 487.866,66.4676 487.532,50.4676 486,34.5C 480.442,14.1024 467.276,2.43573 446.5,-0.5 Z"/></g>
<g><path style="opacity:1" fill="#fd6168" d="M 766.5,-0.5 C 772.5,-0.5 778.5,-0.5 784.5,-0.5C 899.258,7.82029 983.091,62.8203 1036,164.5C 1051.22,197.645 1060.39,232.311 1063.5,268.5C 1063.5,281.833 1063.5,295.167 1063.5,308.5C 1060.96,338.695 1054.12,368.029 1043,396.5C 1003.97,486.371 937.137,543.705 842.5,568.5C 835.697,568.218 829.364,569.551 823.5,572.5C 755.62,583.557 691.62,572.391 631.5,539C 552.912,492.066 505.912,423.232 490.5,332.5C 489.638,318.018 488.971,303.518 488.5,289C 488.667,280.5 488.833,272 489,263.5C 489.333,263.167 489.667,262.833 490,262.5C 490.333,266.833 490.667,271.167 491,275.5C 491.87,274.892 492.37,274.059 492.5,273C 492.629,263.504 491.962,254.004 490.5,244.5C 495.432,210.205 506.265,177.871 523,147.5C 578.029,55.7121 659.196,6.3788 766.5,-0.5 Z"/></g>
<g><path style="opacity:1" fill="#fefefe" d="M 784.5,-0.5 C 877.5,-0.5 970.5,-0.5 1063.5,-0.5C 1063.5,89.1667 1063.5,178.833 1063.5,268.5C 1060.39,232.311 1051.22,197.645 1036,164.5C 983.091,62.8203 899.258,7.82029 784.5,-0.5 Z"/></g>
<g><path style="opacity:1" fill="#00d0d5" d="M 438.5,-0.5 C 441.167,-0.5 443.833,-0.5 446.5,-0.5C 467.276,2.43573 480.442,14.1024 486,34.5C 487.532,50.4676 487.866,66.4676 487,82.5C 468.866,109.432 453.866,138.099 442,168.5C 399.046,302.064 423.046,421.73 514,527.5C 586.037,602.67 674.37,641.337 779,643.5C 791.831,671.181 808.165,696.514 828,719.5C 842.387,733.887 856.721,748.221 871,762.5C 877.982,772.098 882.648,782.764 885,794.5C 889.594,843.056 868.427,873.723 821.5,886.5C 820.833,886.5 820.167,886.5 819.5,886.5C 816.939,885.233 814.272,885.233 811.5,886.5C 565.835,884.667 319.835,883.834 73.5,884C 70.1344,882.228 69.801,882.728 72.5,885.5C 69.8333,885.5 67.1667,885.5 64.5,885.5C 58.285,884.93 52.285,883.43 46.5,881C 21.9952,869.475 6.32853,850.642 -0.5,824.5C -0.5,814.833 -0.5,805.167 -0.5,795.5C 2.77764,780.945 9.27764,767.945 19,756.5C 30,746.167 41,735.833 52,725.5C 100.056,673.36 126.222,611.693 130.5,540.5C 132.504,496.176 132.837,451.842 131.5,407.5C 131.5,407.167 131.5,406.833 131.5,406.5C 132.119,395.511 132.452,384.511 132.5,373.5C 137.287,323.639 152.787,277.306 179,234.5C 230.474,155.632 302.974,108.132 396.5,92C 397.325,75.9074 397.825,59.7407 398,43.5C 400.286,18.385 413.786,3.71831 438.5,-0.5 Z"/></g>
<g><path style="opacity:1" fill="#e06e74" d="M 738.5,177.5 C 745.826,176.834 753.326,176.5 761,176.5C 771.713,176.298 782.213,176.965 792.5,178.5C 774.514,177.652 756.514,177.319 738.5,177.5 Z"/></g>
<g><path style="opacity:1" fill="#df6f77" d="M 737.5,177.5 C 730.917,178.195 724.25,179.195 717.5,180.5C 718.949,178.836 720.949,178.002 723.5,178C 728.155,177.501 732.821,177.334 737.5,177.5 Z"/></g>
<g><path style="opacity:1" fill="#fefefe" d="M 737.5,177.5 C 737.833,177.5 738.167,177.5 738.5,177.5C 756.514,177.319 774.514,177.652 792.5,178.5C 806.167,182.167 814.833,190.833 818.5,204.5C 819.833,267.833 819.833,331.167 818.5,394.5C 811.424,415.046 797.091,423.213 775.5,419C 765.19,414.525 758.19,407.025 754.5,396.5C 753.851,345.354 753.185,294.354 752.5,243.5C 743.827,243.666 735.16,243.5 726.5,243C 709.476,238.977 699.81,228.311 697.5,211C 698.557,197.029 705.223,186.862 717.5,180.5C 724.25,179.195 730.917,178.195 737.5,177.5 Z"/></g>
<g><path style="opacity:1" fill="#f0fefe" d="M 816.5,213.5 C 817.117,213.611 817.617,213.944 818,214.5C 818.167,242.833 818.333,271.167 818.5,299.5C 818.659,328.584 818.159,357.584 817,386.5C 816.5,328.834 816.333,271.168 816.5,213.5 Z"/></g>
<g><path style="opacity:1" fill="#e76a6e" d="M 818.5,204.5 C 819.117,204.611 819.617,204.944 820,205.5C 820.667,268.167 820.667,330.833 820,393.5C 819.617,394.056 819.117,394.389 818.5,394.5C 819.833,331.167 819.833,267.833 818.5,204.5 Z"/></g>
<g><path style="opacity:1" fill="#e16d73" d="M 752.5,243.5 C 753.185,294.354 753.851,345.354 754.5,396.5C 753.732,395.737 753.232,394.737 753,393.5C 752.5,343.501 752.333,293.501 752.5,243.5 Z"/></g>
<g><path style="opacity:1" fill="#ee6870" d="M 490.5,244.5 C 491.962,254.004 492.629,263.504 492.5,273C 492.37,274.059 491.87,274.892 491,275.5C 490.667,271.167 490.333,266.833 490,262.5C 489.667,262.833 489.333,263.167 489,263.5C 488.833,272 488.667,280.5 488.5,289C 488.971,303.518 489.638,318.018 490.5,332.5C 485.167,303.166 485.167,273.832 490.5,244.5 Z"/></g>
<g><path style="opacity:1" fill="#cefffe" d="M 132.5,373.5 C 132.452,384.511 132.119,395.511 131.5,406.5C 130.837,404.527 130.504,402.361 130.5,400C 130.955,390.995 131.621,382.162 132.5,373.5 Z"/></g>
<g><path style="opacity:1" fill="#ccfffe" d="M 131.5,407.5 C 132.837,451.842 132.504,496.176 130.5,540.5C 131.159,496.17 131.492,451.836 131.5,407.5 Z"/></g>
<g><path style="opacity:1" fill="#ea6a73" d="M 842.5,568.5 C 836.442,570.57 830.108,571.904 823.5,572.5C 829.364,569.551 835.697,568.218 842.5,568.5 Z"/></g>
<g><path style="opacity:1" fill="#00d8dd" d="M 811.5,886.5 C 565.097,886.832 318.764,886.499 72.5,885.5C 69.801,882.728 70.1344,882.228 73.5,884C 319.835,883.834 565.835,884.667 811.5,886.5 Z"/></g>
<g><path style="opacity:1" fill="#1fc3c7" d="M 64.5,885.5 C 67.1667,885.5 69.8333,885.5 72.5,885.5C 318.764,886.499 565.097,886.832 811.5,886.5C 814.272,885.233 816.939,885.233 819.5,886.5C 570.514,887.495 321.514,887.828 72.5,887.5C 69.8333,886.833 67.1667,886.167 64.5,885.5 Z"/></g>
<g><path style="opacity:1" fill="#dffffe" d="M 819.5,886.5 C 820.167,886.5 820.833,886.5 821.5,886.5C 818.091,887.903 814.425,888.57 810.5,888.5C 564.5,888.5 318.5,888.5 72.5,888.5C 72.5,888.167 72.5,887.833 72.5,887.5C 321.514,887.828 570.514,887.495 819.5,886.5 Z"/></g>
<g><path style="opacity:1" fill="#fff8f8" d="M 72.5,888.5 C 318.5,888.5 564.5,888.5 810.5,888.5C 809.01,890.28 807.01,890.946 804.5,890.5C 561.061,890.505 317.727,890.505 74.5,890.5C 73.7375,889.732 72.7375,889.232 71.5,889C 71.7284,888.601 72.0618,888.435 72.5,888.5 Z"/></g>
<g><path style="opacity:1" fill="#f4fffe" d="M 74.5,890.5 C 317.727,890.505 561.061,890.505 804.5,890.5C 804.082,891.222 803.416,891.722 802.5,892C 560.5,892.667 318.5,892.667 76.5,892C 74.6573,891.841 73.9907,891.341 74.5,890.5 Z"/></g>
<g><path style="opacity:1" fill="#31bcbe" d="M 280.5,931.5 C 389.001,930.168 497.667,930.168 606.5,931.5C 606.376,932.107 606.043,932.44 605.5,932.5C 497.237,931.502 388.904,931.169 280.5,931.5 Z"/></g>
<g><path style="opacity:1" fill="#01d0d5" d="M 280.5,931.5 C 388.904,931.169 497.237,931.502 605.5,932.5C 585.992,1007.01 538.326,1051.01 462.5,1064.5C 449.167,1064.5 435.833,1064.5 422.5,1064.5C 415.293,1062.7 407.96,1060.86 400.5,1059C 334.976,1039.99 294.976,997.49 280.5,931.5 Z"/></g>
</svg>
