<?xml version="1.0" encoding="UTF-8"?>
<!DOCTYPE svg PUBLIC "-//W3C//DTD SVG 1.1//EN" "http://www.w3.org/Graphics/SVG/1.1/DTD/svg11.dtd">
<svg xmlns="http://www.w3.org/2000/svg" version="1.1" width="1002px" height="614px" style="shape-rendering:geometricPrecision; text-rendering:geometricPrecision; image-rendering:optimizeQuality; fill-rule:evenodd; clip-rule:evenodd" xmlns:xlink="http://www.w3.org/1999/xlink">
<g><path style="opacity:1" fill="#fefefe" d="M -0.5,-0.5 C 333.5,-0.5 667.5,-0.5 1001.5,-0.5C 1001.5,204.167 1001.5,408.833 1001.5,613.5C 667.5,613.5 333.5,613.5 -0.5,613.5C -0.5,408.833 -0.5,204.167 -0.5,-0.5 Z"/></g>
<g><path style="opacity:1" fill="#effefe" d="M 339.5,38.5 C 529.666,37.3338 720,37.1671 910.5,38C 911.056,38.3826 911.389,38.8826 911.5,39.5C 720.844,38.5095 530.178,38.1761 339.5,38.5 Z"/></g>
<g><path style="opacity:1" fill="#fee3e6" d="M 184.5,40.5 C 183.167,40.5 181.833,40.5 180.5,40.5C 180.167,40.5 179.833,40.5 179.5,40.5C 151.003,39.3362 122.336,39.1696 93.5,40C 88.4175,40.0366 83.7508,41.2032 79.5,43.5C 77.7085,43.366 76.0418,43.6993 74.5,44.5C 74.4142,43.5041 74.7476,42.6708 75.5,42C 78.5945,41.2862 81.5945,40.2862 84.5,39C 117.5,38.3333 150.5,38.3333 183.5,39C 184.056,39.3826 184.389,39.8826 184.5,40.5 Z"/></g>
<g><path style="opacity:1" fill="#c0fdfe" d="M 339.5,38.5 C 530.178,38.1761 720.844,38.5095 911.5,39.5C 911.5,39.8333 911.5,40.1667 911.5,40.5C 908.5,40.5 905.5,40.5 902.5,40.5C 714.5,39.1667 526.5,39.1667 338.5,40.5C 336.167,40.5 333.833,40.5 331.5,40.5C 331.611,39.8826 331.944,39.3826 332.5,39C 334.81,38.5034 337.143,38.3367 339.5,38.5 Z"/></g>
<g><path style="opacity:1" fill="#d0757e" d="M 179.5,40.5 C 151.498,40.3334 123.498,40.5 95.5,41C 90.173,41.9435 84.8397,42.7768 79.5,43.5C 83.7508,41.2032 88.4175,40.0366 93.5,40C 122.336,39.1696 151.003,39.3362 179.5,40.5 Z"/></g>
<g><path style="opacity:1" fill="#3cb7bc" d="M 338.5,40.5 C 526.5,39.1667 714.5,39.1667 902.5,40.5C 714.805,40.5023 526.805,40.5023 338.5,40.5 Z"/></g>
<g><path style="opacity:1" fill="#1ec7cb" d="M 331.5,40.5 C 333.833,40.5 336.167,40.5 338.5,40.5C 526.805,40.5023 714.805,40.5023 902.5,40.5C 905.5,40.5 908.5,40.5 911.5,40.5C 912.5,41.1667 913.5,41.8333 914.5,42.5C 910.325,42.8359 905.992,42.8359 901.5,42.5C 901.649,43.552 901.483,44.552 901,45.5C 899.47,44.364 898.137,43.364 897,42.5C 895.913,44.9316 895.413,44.5983 895.5,41.5C 709.833,41.3333 524.166,41.5 338.5,42C 335.833,42.3333 333.167,42.6667 330.5,43C 324.701,44.2423 319.034,46.5757 313.5,50C 311.362,52.4747 309.196,54.9747 307,57.5C 306.257,59.4406 306.424,61.2739 307.5,63C 304.233,62.9369 302.066,64.4369 301,67.5C 300.667,67.1667 300.333,66.8333 300,66.5C 299.333,67.8333 298.667,69.1667 298,70.5C 292.543,76.7945 286.043,81.4612 278.5,84.5C 282.457,81.8782 286.124,78.8782 289.5,75.5C 290.5,74.8333 291.5,74.1667 292.5,73.5C 293.794,72.7101 294.961,71.7101 296,70.5C 299.603,63.7428 303.77,57.4094 308.5,51.5C 308.833,51.5 309.167,51.5 309.5,51.5C 312.857,49.1342 316.19,46.8008 319.5,44.5C 323.59,43.1049 327.59,41.7716 331.5,40.5 Z"/></g>
<g><path style="opacity:1" fill="#d2757f" d="M 180.5,40.5 C 181.833,40.5 183.167,40.5 184.5,40.5C 186.117,41.038 187.784,41.3713 189.5,41.5C 189.5,41.8333 189.5,42.1667 189.5,42.5C 186.219,42.5797 183.219,41.913 180.5,40.5 Z"/></g>
<g><path style="opacity:1" fill="#cffcfc" d="M 331.5,40.5 C 327.59,41.7716 323.59,43.1049 319.5,44.5C 319.574,42.5891 320.574,41.4224 322.5,41C 325.482,40.502 328.482,40.3354 331.5,40.5 Z"/></g>
<g><path style="opacity:1" fill="#00d0d5" d="M 914.5,42.5 C 920.079,42.821 925.079,44.4876 929.5,47.5C 930.031,49.5441 931.198,51.2107 933,52.5C 933.333,52.1667 933.667,51.8333 934,51.5C 936.307,52.8331 938.141,54.6664 939.5,57C 942.754,58.0066 944.754,60.1733 945.5,63.5C 946.552,63.3505 947.552,63.5172 948.5,64C 948.167,64.3333 947.833,64.6667 947.5,65C 948.931,65.4652 950.097,66.2986 951,67.5C 952.672,71.7191 954.839,75.7191 957.5,79.5C 957.085,83.3751 957.585,87.0418 959,90.5C 959.333,227.167 959.667,363.833 960,500.5C 960.383,499.944 960.883,499.611 961.5,499.5C 960.448,505.619 959.781,511.619 959.5,517.5C 958.885,521.008 957.885,524.341 956.5,527.5C 952.916,533.092 948.916,538.426 944.5,543.5C 943.833,543.5 943.5,543.833 943.5,544.5C 934.279,552.574 923.612,557.574 911.5,559.5C 911.167,559.5 910.833,559.5 910.5,559.5C 889.5,559.5 868.5,559.5 847.5,559.5C 796.829,559.833 746.162,559.5 695.5,558.5C 693.854,557.34 692.021,556.673 690,556.5C 592.845,556.827 496.012,557.827 399.5,559.5C 397.265,559.205 395.265,559.539 393.5,560.5C 393.167,560.5 392.833,560.5 392.5,560.5C 375.163,560.667 357.83,560.5 340.5,560C 333.936,558.741 327.603,557.574 321.5,556.5C 317.616,555.427 314.283,553.427 311.5,550.5C 311.167,550.5 310.833,550.5 310.5,550.5C 306.137,545.142 301.803,539.809 297.5,534.5C 296.534,531.206 294.534,528.872 291.5,527.5C 290.473,525.806 289.139,524.473 287.5,523.5C 287.5,523.167 287.5,522.833 287.5,522.5C 287.719,521.325 287.386,520.325 286.5,519.5C 282.303,516.233 277.637,513.733 272.5,512C 266.304,511.312 260.137,510.478 254,509.5C 247.847,510.709 241.847,512.376 236,514.5C 235.086,513.346 234.253,513.513 233.5,515C 233.833,515.333 234.167,515.667 234.5,516C 229.255,516.91 225.422,519.744 223,524.5C 221.095,523.842 219.595,522.675 218.5,521C 217.371,373.015 217.371,224.848 218.5,76.5C 220.167,76.5 221.833,76.5 223.5,76.5C 224.374,78.69 226.041,79.69 228.5,79.5C 244.295,89.4308 260.961,91.0974 278.5,84.5C 286.043,81.4612 292.543,76.7945 298,70.5C 298.667,69.1667 299.333,67.8333 300,66.5C 300.333,66.8333 300.667,67.1667 301,67.5C 302.066,64.4369 304.233,62.9369 307.5,63C 306.424,61.2739 306.257,59.4406 307,57.5C 309.196,54.9747 311.362,52.4747 313.5,50C 319.034,46.5757 324.701,44.2423 330.5,43C 333.167,42.6667 335.833,42.3333 338.5,42C 524.166,41.5 709.833,41.3333 895.5,41.5C 895.413,44.5983 895.913,44.9316 897,42.5C 898.137,43.364 899.47,44.364 901,45.5C 901.483,44.552 901.649,43.552 901.5,42.5C 905.992,42.8359 910.325,42.8359 914.5,42.5 Z"/></g>
<g><path style="opacity:1" fill="#fd6168" d="M 179.5,40.5 C 179.833,40.5 180.167,40.5 180.5,40.5C 183.219,41.913 186.219,42.5797 189.5,42.5C 190.167,42.5 190.833,42.5 191.5,42.5C 191.5,43.5 191.5,44.5 191.5,45.5C 194.33,45.6941 196.996,46.3608 199.5,47.5C 199.351,48.552 199.517,49.552 200,50.5C 202.88,51.5897 205.38,53.2564 207.5,55.5C 208.803,57.9676 210.303,60.301 212,62.5C 212.5,220.833 212.667,379.166 212.5,537.5C 210.975,539.216 209.975,541.216 209.5,543.5C 207.952,543.821 207.285,544.821 207.5,546.5C 206.167,546.5 204.833,546.5 203.5,546.5C 203.5,547.833 203.5,549.167 203.5,550.5C 202.5,551.167 201.5,551.833 200.5,552.5C 199.448,552.351 198.448,552.517 197.5,553C 195.141,554.242 193.141,555.742 191.5,557.5C 180.898,558.972 170.231,559.639 159.5,559.5C 134.853,557.674 109.853,556.841 84.5,557C 82.26,556.023 79.9267,555.523 77.5,555.5C 72.7923,553.476 68.1256,551.476 63.5,549.5C 63.4894,547.983 62.8228,546.816 61.5,546C 59.3716,545.345 57.3716,544.511 55.5,543.5C 53.7892,539.789 51.1225,537.122 47.5,535.5C 47.5,535.167 47.5,534.833 47.5,534.5C 47.6495,533.448 47.4828,532.448 47,531.5C 46.2597,529.681 45.0931,528.348 43.5,527.5C 43.1667,527.5 42.8333,527.5 42.5,527.5C 41.9751,523.467 40.6418,519.8 38.5,516.5C 37.0074,509.59 36.3407,502.59 36.5,495.5C 36.3333,362.166 36.5,228.833 37,95.5C 38.5173,96.9523 38.684,98.4523 37.5,100C 38.3308,231.806 38.8308,363.639 39,495.5C 38.8419,361.265 39.6753,227.099 41.5,93C 41.1354,90.7395 40.4687,88.5728 39.5,86.5C 40.3482,84.5914 40.6816,82.5914 40.5,80.5C 41.1667,79.1667 41.8333,77.8333 42.5,76.5C 44.4341,74.2405 46.1008,71.7405 47.5,69C 48.7932,68.51 50.1266,68.3433 51.5,68.5C 51.5,66.8333 51.5,65.1667 51.5,63.5C 54.5,60.1667 57.5,56.8333 60.5,53.5C 62.7983,52.6897 65.1316,51.8564 67.5,51C 68.3567,50.3109 69.0233,49.4776 69.5,48.5C 73.3368,47.6208 76.6702,45.9541 79.5,43.5C 84.8397,42.7768 90.173,41.9435 95.5,41C 123.498,40.5 151.498,40.3334 179.5,40.5 Z"/></g>
<g><path style="opacity:1" fill="#fdd8db" d="M 189.5,42.5 C 189.5,42.1667 189.5,41.8333 189.5,41.5C 194.673,41.4301 198.673,43.4301 201.5,47.5C 200.833,47.5 200.167,47.5 199.5,47.5C 197.368,45.0453 194.701,43.3786 191.5,42.5C 190.833,42.5 190.167,42.5 189.5,42.5 Z"/></g>
<g><path style="opacity:1" fill="#de7279" d="M 191.5,42.5 C 194.701,43.3786 197.368,45.0453 199.5,47.5C 196.996,46.3608 194.33,45.6941 191.5,45.5C 191.5,44.5 191.5,43.5 191.5,42.5 Z"/></g>
<g><path style="opacity:1" fill="#bffbfc" d="M 319.5,44.5 C 316.19,46.8008 312.857,49.1342 309.5,51.5C 310.706,48.7022 312.706,46.5355 315.5,45C 316.793,44.51 318.127,44.3433 319.5,44.5 Z"/></g>
<g><path style="opacity:1" fill="#03cedb" d="M 367.5,45.5 C 543.512,45.0208 719.512,45.5208 895.5,47C 714.167,47.6667 532.833,47.6667 351.5,47C 357.016,46.8267 362.349,46.3267 367.5,45.5 Z"/></g>
<g><path style="opacity:1" fill="#cbfbfc" d="M 911.5,40.5 C 917.034,39.7785 921.868,41.1118 926,44.5C 928.861,43.7509 931.194,44.7509 933,47.5C 935.437,48.8001 937.937,49.8001 940.5,50.5C 940.5,51.8333 940.5,53.1667 940.5,54.5C 937.003,51.917 933.336,49.5836 929.5,47.5C 925.079,44.4876 920.079,42.821 914.5,42.5C 913.5,41.8333 912.5,41.1667 911.5,40.5 Z"/></g>
<g><path style="opacity:1" fill="#dd737f" d="M 79.5,43.5 C 76.6702,45.9541 73.3368,47.6208 69.5,48.5C 69.0233,49.4776 68.3567,50.3109 67.5,51C 65.1316,51.8564 62.7983,52.6897 60.5,53.5C 61.973,51.6053 63.6397,49.9387 65.5,48.5C 68.5721,47.15 71.5721,45.8167 74.5,44.5C 76.0418,43.6993 77.7085,43.366 79.5,43.5 Z"/></g>
<g><path style="opacity:1" fill="#da767e" d="M 60.5,53.5 C 57.5,56.8333 54.5,60.1667 51.5,63.5C 49.9498,65.622 47.9498,67.2886 45.5,68.5C 49.5,62.5 54.5,57.5 60.5,53.5 Z"/></g>
<g><path style="opacity:1" fill="#b9f8f8" d="M 308.5,51.5 C 303.77,57.4094 299.603,63.7428 296,70.5C 294.961,71.7101 293.794,72.7101 292.5,73.5C 295.167,69.4989 297.334,65.1655 299,60.5C 302.083,57.2462 305.249,54.2462 308.5,51.5 Z"/></g>
<g><path style="opacity:1" fill="#fdeaea" d="M 65.5,48.5 C 63.6397,49.9387 61.973,51.6053 60.5,53.5C 54.5,57.5 49.5,62.5 45.5,68.5C 44.2632,69.9649 43.2632,71.6316 42.5,73.5C 42.1667,73.5 41.8333,73.5 41.5,73.5C 41.9275,70.4359 42.5942,67.4359 43.5,64.5C 44.552,64.6495 45.552,64.4828 46.5,64C 49.307,60.8087 51.807,57.3087 54,53.5C 55.813,54.6091 56.6463,53.9424 56.5,51.5C 59.655,51.0231 62.655,50.0231 65.5,48.5 Z"/></g>
<g><path style="opacity:1" fill="#ef6973" d="M 51.5,63.5 C 51.5,65.1667 51.5,66.8333 51.5,68.5C 50.1266,68.3433 48.7932,68.51 47.5,69C 46.1008,71.7405 44.4341,74.2405 42.5,76.5C 42.5,75.5 42.5,74.5 42.5,73.5C 43.2632,71.6316 44.2632,69.9649 45.5,68.5C 47.9498,67.2886 49.9498,65.622 51.5,63.5 Z"/></g>
<g><path style="opacity:1" fill="#33c1c1" d="M 929.5,47.5 C 933.336,49.5836 937.003,51.917 940.5,54.5C 940.833,54.5 941.167,54.5 941.5,54.5C 949.475,61.8071 955.475,70.4738 959.5,80.5C 958.833,80.1667 958.167,79.8333 957.5,79.5C 954.839,75.7191 952.672,71.7191 951,67.5C 950.097,66.2986 948.931,65.4652 947.5,65C 947.833,64.6667 948.167,64.3333 948.5,64C 947.552,63.5172 946.552,63.3505 945.5,63.5C 944.754,60.1733 942.754,58.0066 939.5,57C 938.141,54.6664 936.307,52.8331 934,51.5C 933.667,51.8333 933.333,52.1667 933,52.5C 931.198,51.2107 930.031,49.5441 929.5,47.5 Z"/></g>
<g><path style="opacity:1" fill="#dffdfd" d="M 941.5,54.5 C 945.356,55.8506 948.523,58.184 951,61.5C 953.75,65.9979 956.75,70.3312 960,74.5C 960.741,73.3595 961.575,73.3595 962.5,74.5C 962.887,80.0381 963.22,85.7047 963.5,91.5C 962.29,88.111 960.957,84.7776 959.5,81.5C 959.5,81.1667 959.5,80.8333 959.5,80.5C 955.475,70.4738 949.475,61.8071 941.5,54.5 Z"/></g>
<g><path style="opacity:1" fill="#e17d84" d="M 41.5,73.5 C 41.8333,73.5 42.1667,73.5 42.5,73.5C 42.5,74.5 42.5,75.5 42.5,76.5C 41.8333,77.8333 41.1667,79.1667 40.5,80.5C 38.8391,84.6357 37.1725,88.6357 35.5,92.5C 36.0322,88.0394 37.0322,83.7061 38.5,79.5C 39.4861,77.5739 40.4861,75.5739 41.5,73.5 Z"/></g>
<g><path style="opacity:1" fill="#d1fdfc" d="M 219.5,69.5 C 220.583,69.5394 221.583,69.8728 222.5,70.5C 227.533,78.0038 234.533,82.1705 243.5,83C 244.167,83.6667 244.833,84.3333 245.5,85C 254.151,86.679 262.818,86.8457 271.5,85.5C 271.343,84.1266 271.51,82.7932 272,81.5C 277.338,83.3189 281.504,81.4855 284.5,76C 286.134,75.5065 287.801,75.3398 289.5,75.5C 286.124,78.8782 282.457,81.8782 278.5,84.5C 260.961,91.0974 244.295,89.4308 228.5,79.5C 225.5,76.1667 222.5,72.8333 219.5,69.5 Z"/></g>
<g><path style="opacity:1" fill="#1cc7cb" d="M 223.5,76.5 C 221.833,76.5 220.167,76.5 218.5,76.5C 217.371,224.848 217.371,373.015 218.5,521C 219.595,522.675 221.095,523.842 223,524.5C 225.422,519.744 229.255,516.91 234.5,516C 234.167,515.667 233.833,515.333 233.5,515C 234.253,513.513 235.086,513.346 236,514.5C 241.847,512.376 247.847,510.709 254,509.5C 260.137,510.478 266.304,511.312 272.5,512C 277.637,513.733 282.303,516.233 286.5,519.5C 287.386,520.325 287.719,521.325 287.5,522.5C 274.456,512.213 260.123,509.546 244.5,514.5C 239.955,514.45 236.289,516.117 233.5,519.5C 229.251,521.088 225.918,523.755 223.5,527.5C 223.167,527.5 222.833,527.5 222.5,527.5C 220.857,527.48 219.524,528.147 218.5,529.5C 218.167,516.167 217.833,502.833 217.5,489.5C 216.571,350.169 216.237,210.835 216.5,71.5C 219.643,71.969 221.977,73.6356 223.5,76.5 Z"/></g>
<g><path style="opacity:1" fill="#e56b77" d="M 199.5,47.5 C 200.167,47.5 200.833,47.5 201.5,47.5C 206.587,51.2526 210.587,55.9193 213.5,61.5C 213.833,220.334 213.5,379.001 212.5,537.5C 212.667,379.166 212.5,220.833 212,62.5C 210.303,60.301 208.803,57.9676 207.5,55.5C 205.38,53.2564 202.88,51.5897 200,50.5C 199.517,49.552 199.351,48.552 199.5,47.5 Z"/></g>
<g><path style="opacity:1" fill="#3bb7bd" d="M 215.5,64.5 C 216.593,66.3492 217.926,68.0158 219.5,69.5C 222.5,72.8333 225.5,76.1667 228.5,79.5C 226.041,79.69 224.374,78.69 223.5,76.5C 221.977,73.6356 219.643,71.969 216.5,71.5C 216.237,210.835 216.571,350.169 217.5,489.5C 217.833,502.833 218.167,516.167 218.5,529.5C 219.524,528.147 220.857,527.48 222.5,527.5C 221.167,529.5 219.5,531.167 217.5,532.5C 216.668,505.336 216.168,478.003 216,450.5C 215.5,321.834 215.333,193.167 215.5,64.5 Z"/></g>
<g><path style="opacity:1" fill="#fee4e3" d="M 38.5,79.5 C 37.0322,83.7061 36.0322,88.0394 35.5,92.5C 34.179,230.344 34.179,368.344 35.5,506.5C 34.8826,506.389 34.3826,506.056 34,505.5C 33.3333,367.5 33.3333,229.5 34,91.5C 33.7322,86.7153 35.2322,82.7153 38.5,79.5 Z"/></g>
<g><path style="opacity:1" fill="#2ebec1" d="M 959.5,81.5 C 960.957,84.7776 962.29,88.111 963.5,91.5C 963.5,230.167 963.5,368.833 963.5,507.5C 962.239,510.258 961.406,513.258 961,516.5C 960.617,517.056 960.117,517.389 959.5,517.5C 959.781,511.619 960.448,505.619 961.5,499.5C 961.667,364.166 961.5,228.833 961,93.5C 960.499,89.4899 959.999,85.4899 959.5,81.5 Z"/></g>
<g><path style="opacity:1" fill="#cf7577" d="M 35.5,92.5 C 35.1671,227.001 35.5004,361.334 36.5,495.5C 36.3407,502.59 37.0074,509.59 38.5,516.5C 36.7571,513.505 35.7571,510.171 35.5,506.5C 34.179,368.344 34.179,230.344 35.5,92.5 Z"/></g>
<g><path style="opacity:1" fill="#f66369" d="M 40.5,80.5 C 40.6816,82.5914 40.3482,84.5914 39.5,86.5C 40.4687,88.5728 41.1354,90.7395 41.5,93C 39.6753,227.099 38.8419,361.265 39,495.5C 38.8308,363.639 38.3308,231.806 37.5,100C 38.684,98.4523 38.5173,96.9523 37,95.5C 36.5,228.833 36.3333,362.166 36.5,495.5C 35.5004,361.334 35.1671,227.001 35.5,92.5C 37.1725,88.6357 38.8391,84.6357 40.5,80.5 Z"/></g>
<g><path style="opacity:1" fill="#09cdd5" d="M 957.5,79.5 C 958.167,79.8333 958.833,80.1667 959.5,80.5C 959.5,80.8333 959.5,81.1667 959.5,81.5C 959.999,85.4899 960.499,89.4899 961,93.5C 961.5,228.833 961.667,364.166 961.5,499.5C 960.883,499.611 960.383,499.944 960,500.5C 959.667,363.833 959.333,227.167 959,90.5C 957.585,87.0418 957.085,83.3751 957.5,79.5 Z"/></g>
<g><path style="opacity:1" fill="#36c3c3" d="M 271.5,138.5 C 261.843,130.2 252.51,130.533 243.5,139.5C 242.054,141.618 241.387,143.951 241.5,146.5C 240.227,160.687 240.227,175.02 241.5,189.5C 240.883,189.389 240.383,189.056 240,188.5C 239.167,172.156 239.334,155.823 240.5,139.5C 241.95,138.345 242.95,136.845 243.5,135C 247.172,134.169 250.172,132.335 252.5,129.5C 257.561,130.029 262.561,131.196 267.5,133C 269.746,134.257 271.079,136.09 271.5,138.5 Z"/></g>
<g><path style="opacity:1" fill="#fcfdfd" d="M 273.5,185.5 C 271.72,186.99 271.054,188.99 271.5,191.5C 268.159,193.521 265.159,195.854 262.5,198.5C 257.681,198.648 253.015,197.982 248.5,196.5C 247.167,196.5 246.5,195.833 246.5,194.5C 243.949,189.307 242.449,183.64 242,177.5C 241.5,167.172 241.334,156.839 241.5,146.5C 243.474,142.007 246.474,138.173 250.5,135C 255.167,134.333 259.833,134.333 264.5,135C 265.579,135.956 266.745,136.789 268,137.5C 268.518,140.023 269.852,142.023 272,143.5C 273.409,157.449 273.909,171.449 273.5,185.5 Z"/></g>
<g><path style="opacity:1" fill="#bdfbfc" d="M 271.5,138.5 C 273.577,142.906 274.744,147.573 275,152.5C 275.5,161.16 275.666,169.827 275.5,178.5C 274.833,180.833 274.167,183.167 273.5,185.5C 273.909,171.449 273.409,157.449 272,143.5C 269.852,142.023 268.518,140.023 268,137.5C 266.745,136.789 265.579,135.956 264.5,135C 259.833,134.333 255.167,134.333 250.5,135C 246.474,138.173 243.474,142.007 241.5,146.5C 241.387,143.951 242.054,141.618 243.5,139.5C 252.51,130.533 261.843,130.2 271.5,138.5 Z"/></g>
<g><path style="opacity:1" fill="#3cc5c8" d="M 719.5,181.5 C 708.243,180.357 696.909,180.19 685.5,181C 684.584,181.278 683.918,181.778 683.5,182.5C 681.973,182.427 680.973,183.094 680.5,184.5C 679.5,185.167 678.5,185.833 677.5,186.5C 677.586,185.504 677.252,184.671 676.5,184C 679.121,181.799 681.954,179.965 685,178.5C 695.962,178.381 707.129,178.547 718.5,179C 719.252,179.671 719.586,180.504 719.5,181.5 Z"/></g>
<g><path style="opacity:1" fill="#c8fcfd" d="M 575.5,178.5 C 566.027,179.35 556.694,180.683 547.5,182.5C 550.683,180.99 554.016,179.657 557.5,178.5C 563.66,177.473 569.66,177.473 575.5,178.5 Z"/></g>
<g><path style="opacity:1" fill="#c7fcfc" d="M 575.5,178.5 C 585.462,178.924 594.129,182.258 601.5,188.5C 593.029,184.13 584.363,180.796 575.5,178.5 Z"/></g>
<g><path style="opacity:1" fill="#bbfbfc" d="M 719.5,181.5 C 720.993,182.312 721.66,183.645 721.5,185.5C 721.564,187.557 720.898,189.223 719.5,190.5C 719.5,189.5 719.5,188.5 719.5,187.5C 721.321,183.784 719.987,181.951 715.5,182C 704.807,181.263 694.14,181.43 683.5,182.5C 683.918,181.778 684.584,181.278 685.5,181C 696.909,180.19 708.243,180.357 719.5,181.5 Z"/></g>
<g><path style="opacity:1" fill="#fcfdfd" d="M 575.5,178.5 C 584.363,180.796 593.029,184.13 601.5,188.5C 602.492,188.328 603.158,188.662 603.5,189.5C 605.368,192.764 608.035,195.098 611.5,196.5C 610.995,200.163 612.495,202.497 616,203.5C 617.323,208.403 619.823,212.403 623.5,215.5C 623.294,218.495 623.96,221.162 625.5,223.5C 625.742,233.903 625.075,244.236 623.5,254.5C 623.5,254.833 623.5,255.167 623.5,255.5C 622.5,255.5 621.5,255.5 620.5,255.5C 620.668,259.733 619.335,260.733 616.5,258.5C 615.5,258.833 614.833,259.5 614.5,260.5C 615.95,261.85 616.617,263.516 616.5,265.5C 615.127,265.343 613.793,265.51 612.5,266C 613.167,266.333 613.833,266.667 614.5,267C 613.354,267.645 612.354,268.478 611.5,269.5C 610.914,269.291 610.414,268.957 610,268.5C 609.503,271.146 609.336,273.813 609.5,276.5C 608.078,276.709 606.745,277.209 605.5,278C 602.019,281.982 597.686,284.482 592.5,285.5C 592.137,286.183 591.804,286.85 591.5,287.5C 577.113,291.389 562.78,291.389 548.5,287.5C 548.489,285.983 547.823,284.816 546.5,284C 544.749,282.855 542.916,282.355 541,282.5C 540.812,280.939 541.645,280.272 543.5,280.5C 543.5,279.5 543.5,278.5 543.5,277.5C 540.143,277.894 537.81,276.561 536.5,273.5C 533.956,274.735 533.956,275.901 536.5,277C 536,277.5 535.5,278 535,278.5C 533.559,277.13 531.892,276.13 530,275.5C 529.486,272.972 528.32,270.805 526.5,269C 526.833,268.667 527.167,268.333 527.5,268C 525.192,267.009 522.859,266.176 520.5,265.5C 520.5,265.167 520.5,264.833 520.5,264.5C 514.011,250.265 512.011,235.265 514.5,219.5C 515.331,216.236 517.164,213.569 520,211.5C 520.44,209.134 520.94,206.801 521.5,204.5C 521.67,201.796 523.003,200.129 525.5,199.5C 526.675,199.719 527.675,199.386 528.5,198.5C 529.889,196.132 531.222,193.799 532.5,191.5C 533.873,191.657 535.207,191.49 536.5,191C 538.782,188.542 541.116,186.376 543.5,184.5C 544.514,183.326 545.847,182.66 547.5,182.5C 556.694,180.683 566.027,179.35 575.5,178.5 Z"/></g>
<g><path style="opacity:1" fill="#ebfefe" d="M 719.5,187.5 C 719.5,186.5 719.5,185.5 719.5,184.5C 716.165,183.148 712.665,182.481 709,182.5C 699.485,183.115 689.985,183.781 680.5,184.5C 680.973,183.094 681.973,182.427 683.5,182.5C 694.14,181.43 704.807,181.263 715.5,182C 719.987,181.951 721.321,183.784 719.5,187.5 Z"/></g>
<g><path style="opacity:1" fill="#fcfdfd" d="M 719.5,187.5 C 719.5,188.5 719.5,189.5 719.5,190.5C 719.5,191.167 719.167,191.5 718.5,191.5C 714.561,195.705 711.894,200.705 710.5,206.5C 710.5,206.833 710.5,207.167 710.5,207.5C 707.53,207.746 706.197,209.412 706.5,212.5C 705.5,212.5 704.5,212.5 703.5,212.5C 701.506,218.07 699.506,223.737 697.5,229.5C 693.038,232.643 690.705,236.976 690.5,242.5C 688.885,244.374 686.885,245.708 684.5,246.5C 683.841,249.455 683.508,252.455 683.5,255.5C 678.974,257.204 676.974,260.537 677.5,265.5C 674.022,268.189 672.022,271.856 671.5,276.5C 670.5,276.5 669.5,276.5 668.5,276.5C 666.397,280.963 664.73,285.63 663.5,290.5C 662.624,290.369 661.957,290.702 661.5,291.5C 659.94,296.516 657.273,300.849 653.5,304.5C 651.176,309.465 649.176,314.465 647.5,319.5C 645.019,324.956 642.352,330.289 639.5,335.5C 638.178,335.33 637.011,335.663 636,336.5C 631.777,345.946 626.777,354.946 621,363.5C 619.6,366.74 618.433,370.073 617.5,373.5C 617.573,375.027 616.906,376.027 615.5,376.5C 611.94,381.05 609.273,386.05 607.5,391.5C 607.5,391.833 607.5,392.167 607.5,392.5C 605.91,392.628 604.577,393.295 603.5,394.5C 602.776,397.615 601.276,400.282 599,402.5C 598.338,404.813 597.838,407.146 597.5,409.5C 595.117,411.222 593.117,413.389 591.5,416C 590.167,416.667 588.833,417.333 587.5,418C 577.632,418.203 567.799,418.703 558,419.5C 556.5,419 555,418.5 553.5,418C 552.941,417.275 552.608,416.442 552.5,415.5C 554.811,410.556 556.811,405.556 558.5,400.5C 558.5,399.833 558.833,399.5 559.5,399.5C 560.5,399.5 561.5,399.5 562.5,399.5C 563.078,395.227 564.411,391.227 566.5,387.5C 567.5,387.5 568.5,387.5 569.5,387.5C 570.167,384.167 570.833,380.833 571.5,377.5C 572.966,376.653 573.8,375.32 574,373.5C 577.904,371.703 580.404,368.703 581.5,364.5C 582.274,363.289 583.107,363.289 584,364.5C 584.833,363.667 585.667,362.833 586.5,362C 585.484,361.481 584.818,360.647 584.5,359.5C 585.269,356.896 586.936,355.062 589.5,354C 588.833,353 588.167,352 587.5,351C 589.155,349.556 589.822,347.722 589.5,345.5C 591.048,345.821 591.715,346.821 591.5,348.5C 595.079,348.234 595.413,346.901 592.5,344.5C 593.963,340.479 595.297,336.479 596.5,332.5C 600.926,327.991 604.093,322.658 606,316.5C 608.333,313.5 610.667,310.5 613,307.5C 612.855,304.077 614.355,302.077 617.5,301.5C 618.239,296.621 619.572,291.955 621.5,287.5C 624.543,283.785 627.376,279.785 630,275.5C 631.664,272.673 632.83,269.673 633.5,266.5C 634.888,262.427 636.888,258.761 639.5,255.5C 642.393,253.252 644.06,250.252 644.5,246.5C 645.468,243.9 646.801,241.566 648.5,239.5C 649.376,239.631 650.043,239.298 650.5,238.5C 652.167,235.167 653.833,231.833 655.5,228.5C 656.325,227.614 657.325,227.281 658.5,227.5C 659.167,224.167 659.833,220.833 660.5,217.5C 663.8,210.57 667.466,203.904 671.5,197.5C 672.721,196.972 673.887,196.305 675,195.5C 676.312,191.543 678.145,187.876 680.5,184.5C 689.985,183.781 699.485,183.115 709,182.5C 712.665,182.481 716.165,183.148 719.5,184.5C 719.5,185.5 719.5,186.5 719.5,187.5 Z"/></g>
<g><path style="opacity:1" fill="#30c1c1" d="M 607.5,191.5 C 606.395,190.4 605.062,189.733 603.5,189.5C 603.158,188.662 602.492,188.328 601.5,188.5C 594.129,182.258 585.462,178.924 575.5,178.5C 569.66,177.473 563.66,177.473 557.5,178.5C 557.611,177.883 557.944,177.383 558.5,177C 564.551,176.792 570.551,176.292 576.5,175.5C 582.107,177.046 587.607,179.046 593,181.5C 593.414,181.043 593.914,180.709 594.5,180.5C 597.079,183.622 600.413,185.288 604.5,185.5C 605.549,187.528 606.549,189.528 607.5,191.5 Z"/></g>
<g><path style="opacity:1" fill="#cffefd" d="M 241.5,146.5 C 241.334,156.839 241.5,167.172 242,177.5C 242.449,183.64 243.949,189.307 246.5,194.5C 244.621,193.103 242.954,191.437 241.5,189.5C 240.227,175.02 240.227,160.687 241.5,146.5 Z"/></g>
<g><path style="opacity:1" fill="#33c2c1" d="M 275.5,178.5 C 275.244,180.792 275.577,182.959 276.5,185C 276.045,187.312 275.045,189.312 273.5,191C 273.833,191.333 274.167,191.667 274.5,192C 272.47,193.896 270.803,196.063 269.5,198.5C 263.92,200.299 257.92,200.799 251.5,200C 250.944,199.617 250.611,199.117 250.5,198.5C 254.633,199.726 258.633,199.726 262.5,198.5C 266.888,197.821 269.888,195.488 271.5,191.5C 273.074,189.898 273.741,187.898 273.5,185.5C 274.167,183.167 274.833,180.833 275.5,178.5 Z"/></g>
<g><path style="opacity:1" fill="#bafdfc" d="M 273.5,185.5 C 273.741,187.898 273.074,189.898 271.5,191.5C 271.054,188.99 271.72,186.99 273.5,185.5 Z"/></g>
<g><path style="opacity:1" fill="#c5fbfb" d="M 543.5,184.5 C 541.116,186.376 538.782,188.542 536.5,191C 535.207,191.49 533.873,191.657 532.5,191.5C 535.894,188.779 539.561,186.446 543.5,184.5 Z"/></g>
<g><path style="opacity:1" fill="#c6faf9" d="M 603.5,189.5 C 605.062,189.733 606.395,190.4 607.5,191.5C 608.167,192.833 609.167,193.833 610.5,194.5C 610.833,195.167 611.167,195.833 611.5,196.5C 608.035,195.098 605.368,192.764 603.5,189.5 Z"/></g>
<g><path style="opacity:1" fill="#bcfcfd" d="M 271.5,191.5 C 269.888,195.488 266.888,197.821 262.5,198.5C 265.159,195.854 268.159,193.521 271.5,191.5 Z"/></g>
<g><path style="opacity:1" fill="#cefdfe" d="M 680.5,184.5 C 678.145,187.876 676.312,191.543 675,195.5C 673.887,196.305 672.721,196.972 671.5,197.5C 673.234,193.7 675.234,190.034 677.5,186.5C 678.5,185.833 679.5,185.167 680.5,184.5 Z"/></g>
<g><path style="opacity:1" fill="#d8fefd" d="M 532.5,191.5 C 531.222,193.799 529.889,196.132 528.5,198.5C 527.675,199.386 526.675,199.719 525.5,199.5C 525.5,198.833 525.5,198.167 525.5,197.5C 527.833,195.5 530.167,193.5 532.5,191.5 Z"/></g>
<g><path style="opacity:1" fill="#b3fcfc" d="M 248.5,196.5 C 253.015,197.982 257.681,198.648 262.5,198.5C 258.633,199.726 254.633,199.726 250.5,198.5C 249.833,197.833 249.167,197.167 248.5,196.5 Z"/></g>
<g><path style="opacity:1" fill="#c4fdfd" d="M 718.5,191.5 C 716.598,196.973 713.932,201.973 710.5,206.5C 711.894,200.705 714.561,195.705 718.5,191.5 Z"/></g>
<g><path style="opacity:1" fill="#cbfdfd" d="M 587.5,217.5 C 580.512,210.839 572.179,208.673 562.5,211C 560.257,212.136 557.924,212.97 555.5,213.5C 557.052,211.041 559.385,209.541 562.5,209C 567.833,208.333 573.167,208.333 578.5,209C 582.456,210.951 585.456,213.784 587.5,217.5 Z"/></g>
<g><path style="opacity:1" fill="#cdfdfd" d="M 611.5,196.5 C 617.104,201.781 621.104,208.114 623.5,215.5C 619.823,212.403 617.323,208.403 616,203.5C 612.495,202.497 610.995,200.163 611.5,196.5 Z"/></g>
<g><path style="opacity:1" fill="#d0fdfd" d="M 521.5,204.5 C 520.94,206.801 520.44,209.134 520,211.5C 517.164,213.569 515.331,216.236 514.5,219.5C 514.523,217.073 515.023,214.74 516,212.5C 517.389,209.433 519.222,206.767 521.5,204.5 Z"/></g>
<g><path style="opacity:1" fill="#32c4c6" d="M 587.5,217.5 C 588.925,218.922 589.925,220.589 590.5,222.5C 586.773,221.176 584.106,218.676 582.5,215C 579.792,213.931 577.125,212.764 574.5,211.5C 569.465,213.253 564.465,213.92 559.5,213.5C 558.472,215.361 556.972,216.695 555,217.5C 554.691,218.766 554.191,219.933 553.5,221C 551.671,221.273 550.171,222.107 549,223.5C 547.425,229.126 546.258,234.792 545.5,240.5C 543.394,231.589 545.394,223.589 551.5,216.5C 553.23,215.974 554.564,214.974 555.5,213.5C 557.924,212.97 560.257,212.136 562.5,211C 572.179,208.673 580.512,210.839 587.5,217.5 Z"/></g>
<g><path style="opacity:1" fill="#08cfd5" d="M 590.5,222.5 C 591.167,222.5 591.5,222.833 591.5,223.5C 596.559,235.537 594.559,246.204 585.5,255.5C 585.167,255.5 584.833,255.5 584.5,255.5C 580.643,256.175 576.977,257.342 573.5,259C 568.968,259.152 564.635,259.319 560.5,259.5C 555.746,257.461 551.746,254.461 548.5,250.5C 548.672,249.508 548.338,248.842 547.5,248.5C 546.629,245.888 545.963,243.221 545.5,240.5C 546.258,234.792 547.425,229.126 549,223.5C 550.171,222.107 551.671,221.273 553.5,221C 554.191,219.933 554.691,218.766 555,217.5C 556.972,216.695 558.472,215.361 559.5,213.5C 564.465,213.92 569.465,213.253 574.5,211.5C 577.125,212.764 579.792,213.931 582.5,215C 584.106,218.676 586.773,221.176 590.5,222.5 Z"/></g>
<g><path style="opacity:1" fill="#b6fbfb" d="M 623.5,215.5 C 625.04,217.838 625.706,220.505 625.5,223.5C 623.96,221.162 623.294,218.495 623.5,215.5 Z"/></g>
<g><path style="opacity:1" fill="#31c2c2" d="M 610.5,194.5 C 612.394,195.048 614.06,196.048 615.5,197.5C 619.591,203.073 623.424,208.739 627,214.5C 627.871,223.857 628.704,233.19 629.5,242.5C 628.926,244.059 628.26,245.559 627.5,247C 627.616,248.268 627.949,249.602 628.5,251C 627.833,251.333 627.167,251.667 626.5,252C 627.361,254.321 626.361,255.487 623.5,255.5C 623.5,255.167 623.5,254.833 623.5,254.5C 625.074,252.898 625.741,250.898 625.5,248.5C 626.268,247.737 626.768,246.737 627,245.5C 627.82,238.986 627.653,232.653 626.5,226.5C 626.737,225.209 626.404,224.209 625.5,223.5C 625.706,220.505 625.04,217.838 623.5,215.5C 621.104,208.114 617.104,201.781 611.5,196.5C 611.167,195.833 610.833,195.167 610.5,194.5 Z"/></g>
<g><path style="opacity:1" fill="#d6fdfd" d="M 710.5,207.5 C 707.621,211.925 705.287,216.592 703.5,221.5C 701.5,224.167 699.5,226.833 697.5,229.5C 699.506,223.737 701.506,218.07 703.5,212.5C 704.5,212.5 705.5,212.5 706.5,212.5C 706.197,209.412 707.53,207.746 710.5,207.5 Z"/></g>
<g><path style="opacity:1" fill="#cffdfd" d="M 514.5,219.5 C 512.011,235.265 514.011,250.265 520.5,264.5C 518.279,261.747 516.279,258.747 514.5,255.5C 511.26,244.323 510.76,232.989 513,221.5C 513.278,220.584 513.778,219.918 514.5,219.5 Z"/></g>
<g><path style="opacity:1" fill="#aaf9fa" d="M 626.5,226.5 C 627.653,232.653 627.82,238.986 627,245.5C 626.768,246.737 626.268,247.737 625.5,248.5C 626.302,241.196 626.635,233.862 626.5,226.5 Z"/></g>
<g><path style="opacity:1" fill="#dcfefe" d="M 625.5,223.5 C 626.404,224.209 626.737,225.209 626.5,226.5C 626.635,233.862 626.302,241.196 625.5,248.5C 625.741,250.898 625.074,252.898 623.5,254.5C 625.075,244.236 625.742,233.903 625.5,223.5 Z"/></g>
<g><path style="opacity:1" fill="#c6fbfa" d="M 697.5,229.5 C 695.946,234.276 693.613,238.61 690.5,242.5C 690.705,236.976 693.038,232.643 697.5,229.5 Z"/></g>
<g><path style="opacity:1" fill="#c2fcfc" d="M 551.5,216.5 C 545.394,223.589 543.394,231.589 545.5,240.5C 545.963,243.221 546.629,245.888 547.5,248.5C 545.883,246.879 544.716,244.879 544,242.5C 542.765,234.874 543.599,227.541 546.5,220.5C 547.605,218.389 549.271,217.055 551.5,216.5 Z"/></g>
<g><path style="opacity:1" fill="#cbfcfb" d="M 660.5,217.5 C 659.833,220.833 659.167,224.167 658.5,227.5C 657.325,227.281 656.325,227.614 655.5,228.5C 653.833,231.833 652.167,235.167 650.5,238.5C 650.043,239.298 649.376,239.631 648.5,239.5C 652,231.83 656,224.496 660.5,217.5 Z"/></g>
<g><path style="opacity:1" fill="#32c1c6" d="M 525.5,197.5 C 525.5,198.167 525.5,198.833 525.5,199.5C 523.003,200.129 521.67,201.796 521.5,204.5C 519.222,206.767 517.389,209.433 516,212.5C 515.023,214.74 514.523,217.073 514.5,219.5C 513.778,219.918 513.278,220.584 513,221.5C 510.76,232.989 511.26,244.323 514.5,255.5C 512.533,252.869 510.866,250.036 509.5,247C 509.265,239.29 509.598,231.456 510.5,223.5C 512.343,216.458 514.843,209.791 518,203.5C 518.903,202.299 520.069,201.465 521.5,201C 521.167,200.667 520.833,200.333 520.5,200C 522.078,198.906 523.745,198.072 525.5,197.5 Z"/></g>
<g><path style="opacity:1" fill="#c7fbfc" d="M 591.5,223.5 C 593.074,223.937 594.241,224.937 595,226.5C 595.667,232.5 595.667,238.5 595,244.5C 593.204,249.473 590.037,253.139 585.5,255.5C 594.559,246.204 596.559,235.537 591.5,223.5 Z"/></g>
<g><path style="opacity:1" fill="#fcfefd" d="M 271.5,252.5 C 271.838,254.854 272.338,257.187 273,259.5C 273.5,287.165 273.667,314.831 273.5,342.5C 273.5,343.167 273.5,343.833 273.5,344.5C 271.952,344.821 271.285,345.821 271.5,347.5C 270.5,347.5 269.5,347.5 268.5,347.5C 268.386,349.718 267.72,351.718 266.5,353.5C 262.303,353.429 258.137,353.763 254,354.5C 251.067,353.721 248.234,352.721 245.5,351.5C 245.167,351.5 244.833,351.5 244.5,351.5C 244.167,350.167 243.833,348.833 243.5,347.5C 242.94,345.199 242.44,342.866 242,340.5C 241.333,313.5 241.333,286.5 242,259.5C 243.518,255.08 245.685,251.08 248.5,247.5C 257.407,243.734 265.074,245.401 271.5,252.5 Z"/></g>
<g><path style="opacity:1" fill="#bbfbfb" d="M 271.5,250.5 C 271.5,251.167 271.5,251.833 271.5,252.5C 265.074,245.401 257.407,243.734 248.5,247.5C 252.856,243.44 257.856,242.607 263.5,245C 266.597,246.273 269.264,248.107 271.5,250.5 Z"/></g>
<g><path style="opacity:1" fill="#d3fcfd" d="M 690.5,242.5 C 688.724,247.185 686.391,251.518 683.5,255.5C 683.508,252.455 683.841,249.455 684.5,246.5C 686.885,245.708 688.885,244.374 690.5,242.5 Z"/></g>
<g><path style="opacity:1" fill="#b7fbf9" d="M 644.5,246.5 C 644.06,250.252 642.393,253.252 639.5,255.5C 640.807,252.22 642.473,249.22 644.5,246.5 Z"/></g>
<g><path style="opacity:1" fill="#29c4c6" d="M 703.5,221.5 C 704.034,225.478 702.534,228.478 699,230.5C 696.598,235.636 693.932,240.636 691,245.5C 690.405,246.899 690.572,248.232 691.5,249.5C 690.672,250.415 689.672,251.081 688.5,251.5C 687.833,254.167 687.167,256.833 686.5,259.5C 684.587,260.373 682.753,261.373 681,262.5C 678.888,266.29 677.222,270.29 676,274.5C 675.184,275.823 674.017,276.489 672.5,276.5C 674.422,272.987 676.088,269.321 677.5,265.5C 679.858,262.454 681.858,259.121 683.5,255.5C 686.391,251.518 688.724,247.185 690.5,242.5C 693.613,238.61 695.946,234.276 697.5,229.5C 699.5,226.833 701.5,224.167 703.5,221.5 Z"/></g>
<g><path style="opacity:1" fill="#dbfdfd" d="M 548.5,250.5 C 551.746,254.461 555.746,257.461 560.5,259.5C 561.708,260.234 563.041,260.567 564.5,260.5C 566.304,261.162 568.304,261.495 570.5,261.5C 573.814,261.657 576.814,260.991 579.5,259.5C 581.167,258.167 582.833,256.833 584.5,255.5C 584.833,255.5 585.167,255.5 585.5,255.5C 584.013,258.484 581.68,260.651 578.5,262C 571.444,262.788 564.444,262.455 557.5,261C 555.804,258.495 553.47,256.995 550.5,256.5C 549.628,254.55 548.961,252.55 548.5,250.5 Z"/></g>
<g><path style="opacity:1" fill="#b1fbfa" d="M 579.5,259.5 C 576.814,260.991 573.814,261.657 570.5,261.5C 568.304,261.495 566.304,261.162 564.5,260.5C 569.537,260.587 574.537,260.254 579.5,259.5 Z"/></g>
<g><path style="opacity:1" fill="#3ebebb" d="M 584.5,255.5 C 582.833,256.833 581.167,258.167 579.5,259.5C 574.537,260.254 569.537,260.587 564.5,260.5C 563.041,260.567 561.708,260.234 560.5,259.5C 564.635,259.319 568.968,259.152 573.5,259C 576.977,257.342 580.643,256.175 584.5,255.5 Z"/></g>
<g><path style="opacity:1" fill="#d6fdfd" d="M 683.5,255.5 C 681.858,259.121 679.858,262.454 677.5,265.5C 676.974,260.537 678.974,257.204 683.5,255.5 Z"/></g>
<g><path style="opacity:1" fill="#35cbcf" d="M 245.5,248.5 C 244.013,251.473 242.513,254.473 241,257.5C 240.333,285.833 240.333,314.167 241,342.5C 241.099,344.653 241.933,346.319 243.5,347.5C 243.833,348.833 244.167,350.167 244.5,351.5C 243.5,351.5 242.5,351.5 241.5,351.5C 241.657,350.127 241.49,348.793 241,347.5C 240,346.167 239,346.167 238,347.5C 237.764,345.236 237.264,343.069 236.5,341C 237.458,339.853 237.125,338.853 235.5,338C 236.126,337.25 236.626,336.416 237,335.5C 237.19,310.647 237.69,285.814 238.5,261C 238.561,259.289 237.894,257.956 236.5,257C 240.177,254.473 241.844,250.973 241.5,246.5C 243.483,246.157 244.817,246.824 245.5,248.5 Z"/></g>
<g><path style="opacity:1" fill="#1dc7c9" d="M 275.5,337.5 C 275.667,312.164 275.5,286.831 275,261.5C 274.881,257.995 273.714,254.995 271.5,252.5C 271.5,251.833 271.5,251.167 271.5,250.5C 272.204,248.656 273.537,248.156 275.5,249C 276.227,250.399 276.727,251.899 277,253.5C 277.667,280.833 277.667,308.167 277,335.5C 276.722,336.416 276.222,337.082 275.5,337.5 Z"/></g>
<g><path style="opacity:1" fill="#c4fcfd" d="M 271.5,252.5 C 273.714,254.995 274.881,257.995 275,261.5C 275.5,286.831 275.667,312.164 275.5,337.5C 275.5,337.833 275.5,338.167 275.5,338.5C 274.833,339.833 274.167,341.167 273.5,342.5C 273.667,314.831 273.5,287.165 273,259.5C 272.338,257.187 271.838,254.854 271.5,252.5 Z"/></g>
<g><path style="opacity:1" fill="#c4fefe" d="M 248.5,247.5 C 245.685,251.08 243.518,255.08 242,259.5C 241.333,286.5 241.333,313.5 242,340.5C 242.44,342.866 242.94,345.199 243.5,347.5C 241.933,346.319 241.099,344.653 241,342.5C 240.333,314.167 240.333,285.833 241,257.5C 242.513,254.473 244.013,251.473 245.5,248.5C 246.391,247.89 247.391,247.557 248.5,247.5 Z"/></g>
<g><path style="opacity:1" fill="#e0fcfc" d="M 623.5,255.5 C 623.5,256.167 623.5,256.833 623.5,257.5C 620.054,264.723 615.387,271.056 609.5,276.5C 609.336,273.813 609.503,271.146 610,268.5C 610.414,268.957 610.914,269.291 611.5,269.5C 612.354,268.478 613.354,267.645 614.5,267C 613.833,266.667 613.167,266.333 612.5,266C 613.793,265.51 615.127,265.343 616.5,265.5C 616.617,263.516 615.95,261.85 614.5,260.5C 614.833,259.5 615.5,258.833 616.5,258.5C 619.335,260.733 620.668,259.733 620.5,255.5C 621.5,255.5 622.5,255.5 623.5,255.5 Z"/></g>
<g><path style="opacity:1" fill="#c8fdfe" d="M 677.5,265.5 C 676.088,269.321 674.422,272.987 672.5,276.5C 672.167,276.5 671.833,276.5 671.5,276.5C 672.022,271.856 674.022,268.189 677.5,265.5 Z"/></g>
<g><path style="opacity:1" fill="#ecfdfc" d="M 520.5,265.5 C 522.859,266.176 525.192,267.009 527.5,268C 527.167,268.333 526.833,268.667 526.5,269C 528.32,270.805 529.486,272.972 530,275.5C 531.892,276.13 533.559,277.13 535,278.5C 535.5,278 536,277.5 536.5,277C 533.956,275.901 533.956,274.735 536.5,273.5C 537.81,276.561 540.143,277.894 543.5,277.5C 543.5,278.5 543.5,279.5 543.5,280.5C 541.645,280.272 540.812,280.939 541,282.5C 542.916,282.355 544.749,282.855 546.5,284C 547.823,284.816 548.489,285.983 548.5,287.5C 547.5,287.5 546.5,287.5 545.5,287.5C 542.952,285.588 540.618,283.421 538.5,281C 536.846,280.392 535.179,279.892 533.5,279.5C 528.534,276.201 524.201,272.201 520.5,267.5C 520.5,266.833 520.5,266.167 520.5,265.5 Z"/></g>
<g><path style="opacity:1" fill="#c4fdfd" d="M 633.5,266.5 C 632.83,269.673 631.664,272.673 630,275.5C 627.376,279.785 624.543,283.785 621.5,287.5C 624.751,279.99 628.751,272.99 633.5,266.5 Z"/></g>
<g><path style="opacity:1" fill="#31c1c4" d="M 520.5,267.5 C 524.201,272.201 528.534,276.201 533.5,279.5C 536.567,282.574 539.9,285.241 543.5,287.5C 539.684,286.599 536.017,285.099 532.5,283C 532.833,282.667 533.167,282.333 533.5,282C 530.547,279.207 527.213,277.04 523.5,275.5C 522.487,272.812 521.487,270.146 520.5,267.5 Z"/></g>
<g><path style="opacity:1" fill="#c1fbfb" d="M 609.5,276.5 C 606.796,280.027 603.462,282.86 599.5,285C 597.073,286.591 594.407,287.425 591.5,287.5C 591.804,286.85 592.137,286.183 592.5,285.5C 597.686,284.482 602.019,281.982 605.5,278C 606.745,277.209 608.078,276.709 609.5,276.5 Z"/></g>
<g><path style="opacity:1" fill="#cefcfc" d="M 671.5,276.5 C 670.088,280.321 668.422,283.987 666.5,287.5C 665.728,288.694 664.728,289.694 663.5,290.5C 664.73,285.63 666.397,280.963 668.5,276.5C 669.5,276.5 670.5,276.5 671.5,276.5 Z"/></g>
<g><path style="opacity:1" fill="#c4fafa" d="M 533.5,279.5 C 535.179,279.892 536.846,280.392 538.5,281C 540.618,283.421 542.952,285.588 545.5,287.5C 544.833,287.5 544.167,287.5 543.5,287.5C 539.9,285.241 536.567,282.574 533.5,279.5 Z"/></g>
<g><path style="opacity:1" fill="#28c6c9" d="M 623.5,257.5 C 621.116,265.265 616.949,271.932 611,277.5C 609.851,280.779 609.018,284.113 608.5,287.5C 605.728,287.78 603.228,287.113 601,285.5C 598.196,286.702 596.196,288.702 595,291.5C 591.117,290.062 587.784,291.395 585,295.5C 576.092,295.148 566.758,294.481 557,293.5C 555.774,293.645 554.607,293.978 553.5,294.5C 549.555,292.799 546.221,290.466 543.5,287.5C 544.167,287.5 544.833,287.5 545.5,287.5C 558.017,292.57 571.017,293.737 584.5,291C 587.445,290.861 589.779,289.694 591.5,287.5C 594.407,287.425 597.073,286.591 599.5,285C 603.462,282.86 606.796,280.027 609.5,276.5C 615.387,271.056 620.054,264.723 623.5,257.5 Z"/></g>
<g><path style="opacity:1" fill="#d0fdfd" d="M 545.5,287.5 C 546.5,287.5 547.5,287.5 548.5,287.5C 562.78,291.389 577.113,291.389 591.5,287.5C 589.779,289.694 587.445,290.861 584.5,291C 571.017,293.737 558.017,292.57 545.5,287.5 Z"/></g>
<g><path style="opacity:1" fill="#d2fcfd" d="M 621.5,287.5 C 619.572,291.955 618.239,296.621 617.5,301.5C 614.355,302.077 612.855,304.077 613,307.5C 610.667,310.5 608.333,313.5 606,316.5C 604.093,322.658 600.926,327.991 596.5,332.5C 604.44,317.24 612.774,302.24 621.5,287.5 Z"/></g>
<g><path style="opacity:1" fill="#37c1c3" d="M 733.5,313.5 C 731.883,312.962 730.216,312.629 728.5,312.5C 725.679,310.288 722.345,309.288 718.5,309.5C 709.406,306.712 700.406,307.045 691.5,310.5C 688.426,310.873 685.426,311.539 682.5,312.5C 684.429,310.852 686.429,309.185 688.5,307.5C 689.167,307.833 689.833,308.167 690.5,308.5C 701.448,306.082 712.448,305.916 723.5,308C 724.76,309.113 725.927,309.28 727,308.5C 729.071,310.437 731.238,312.104 733.5,313.5 Z"/></g>
<g><path style="opacity:1" fill="#dafdfe" d="M 701.5,309.5 C 706.987,308.867 712.654,308.867 718.5,309.5C 722.345,309.288 725.679,310.288 728.5,312.5C 719.53,311.254 710.53,310.254 701.5,309.5 Z"/></g>
<g><path style="opacity:1" fill="#bafafc" d="M 718.5,309.5 C 712.654,308.867 706.987,308.867 701.5,309.5C 698.214,310.207 694.881,310.54 691.5,310.5C 700.406,307.045 709.406,306.712 718.5,309.5 Z"/></g>
<g><path style="opacity:1" fill="#c8fcfb" d="M 663.5,290.5 C 663.509,292.308 663.009,293.975 662,295.5C 657.398,303.716 652.565,311.716 647.5,319.5C 649.176,314.465 651.176,309.465 653.5,304.5C 657.273,300.849 659.94,296.516 661.5,291.5C 661.957,290.702 662.624,290.369 663.5,290.5 Z"/></g>
<g><path style="opacity:1" fill="#fcfdfd" d="M 701.5,309.5 C 710.53,310.254 719.53,311.254 728.5,312.5C 732.278,315.767 736.611,318.101 741.5,319.5C 742.167,319.833 742.833,320.167 743.5,320.5C 743.351,321.552 743.517,322.552 744,323.5C 746.4,325.415 748.9,327.081 751.5,328.5C 751.622,331.292 752.956,333.292 755.5,334.5C 755.643,336.262 755.309,337.929 754.5,339.5C 755.628,340.262 756.795,340.929 758,341.5C 763.202,352.564 764.869,364.23 763,376.5C 761.798,378.677 761.298,381.011 761.5,383.5C 760.792,385.378 759.626,387.045 758,388.5C 757.51,389.793 757.343,391.127 757.5,392.5C 754.482,393.855 753.149,396.188 753.5,399.5C 751.776,401.875 750.11,404.208 748.5,406.5C 746.938,406.733 745.605,407.4 744.5,408.5C 741.886,409.807 739.22,411.14 736.5,412.5C 735.614,413.325 735.281,414.325 735.5,415.5C 735.167,415.5 734.833,415.5 734.5,415.5C 731.327,415.401 728.327,416.068 725.5,417.5C 723.825,417.868 722.825,418.868 722.5,420.5C 722.167,420.5 721.833,420.5 721.5,420.5C 712.5,420.5 703.5,420.5 694.5,420.5C 693.942,419.21 692.942,418.377 691.5,418C 688.568,417.047 685.568,416.547 682.5,416.5C 682.67,415.178 682.337,414.011 681.5,413C 679.527,412.505 677.527,412.338 675.5,412.5C 673.596,412.262 672.262,411.262 671.5,409.5C 671.67,408.178 671.337,407.011 670.5,406C 673.044,404.901 673.044,403.735 670.5,402.5C 669.468,404.04 668.135,404.54 666.5,404C 664.917,402.242 663.25,400.742 661.5,399.5C 661.286,397.856 661.62,396.356 662.5,395C 661.207,394.51 659.873,394.343 658.5,394.5C 658.247,392.173 658.914,390.173 660.5,388.5C 656.262,384.379 652.929,379.712 650.5,374.5C 649.93,365.507 650.93,356.84 653.5,348.5C 658.308,348.077 659.308,346.077 656.5,342.5C 657.705,339.55 658.705,336.55 659.5,333.5C 664.23,329.773 668.23,325.44 671.5,320.5C 671.5,319.833 671.833,319.5 672.5,319.5C 678.744,316.308 685.077,313.308 691.5,310.5C 694.881,310.54 698.214,310.207 701.5,309.5 Z"/></g>
<g><path style="opacity:1" fill="#c0fbfc" d="M 691.5,310.5 C 685.077,313.308 678.744,316.308 672.5,319.5C 674.297,318.607 675.63,317.274 676.5,315.5C 678.97,315.346 680.97,314.346 682.5,312.5C 685.426,311.539 688.426,310.873 691.5,310.5 Z"/></g>
<g><path style="opacity:1" fill="#c5fdfc" d="M 728.5,312.5 C 730.216,312.629 731.883,312.962 733.5,313.5C 736.167,315.5 738.833,317.5 741.5,319.5C 736.611,318.101 732.278,315.767 728.5,312.5 Z"/></g>
<g><path style="opacity:1" fill="#c1fdfd" d="M 743.5,320.5 C 746.167,322.833 748.833,325.167 751.5,327.5C 751.5,327.833 751.5,328.167 751.5,328.5C 748.9,327.081 746.4,325.415 744,323.5C 743.517,322.552 743.351,321.552 743.5,320.5 Z"/></g>
<g><path style="opacity:1" fill="#cafdfe" d="M 671.5,320.5 C 668.23,325.44 664.23,329.773 659.5,333.5C 662.77,328.56 666.77,324.227 671.5,320.5 Z"/></g>
<g><path style="opacity:1" fill="#21cacf" d="M 666.5,287.5 C 667.872,289.35 667.372,290.683 665,291.5C 663.83,294.505 662.664,297.505 661.5,300.5C 658.89,305.549 655.89,310.382 652.5,315C 653.022,315.95 653.689,316.784 654.5,317.5C 653.879,320.564 653.045,323.564 652,326.5C 649.425,322.616 647.591,323.116 646.5,328C 646.667,328.5 646.833,329 647,329.5C 649.167,329.333 651.333,329.167 653.5,329C 654.833,328 654.833,327 653.5,326C 654.784,325.316 655.951,325.483 657,326.5C 657.645,325.354 658.478,324.354 659.5,323.5C 658.167,323.167 656.833,322.833 655.5,322.5C 657.287,321.684 658.954,320.684 660.5,319.5C 661.731,320.651 661.731,321.817 660.5,323C 662.797,323.018 665.131,322.851 667.5,322.5C 668.507,319.642 670.173,317.142 672.5,315C 673.819,314.805 675.153,314.972 676.5,315.5C 675.63,317.274 674.297,318.607 672.5,319.5C 671.833,319.5 671.5,319.833 671.5,320.5C 666.77,324.227 662.77,328.56 659.5,333.5C 657.412,335.336 656.079,337.669 655.5,340.5C 653.644,343.409 651.977,346.409 650.5,349.5C 650.33,348.178 650.663,347.011 651.5,346C 648.039,341.246 645.539,336.079 644,330.5C 643.305,332.722 642.472,334.889 641.5,337C 642.424,338.15 642.424,339.15 641.5,340C 642.448,340.483 643.448,340.649 644.5,340.5C 644.357,348.078 643.024,348.744 640.5,342.5C 639.526,344.743 639.192,347.076 639.5,349.5C 636.724,349.089 636.057,349.922 637.5,352C 635.274,355.62 633.44,359.453 632,363.5C 630.343,366.16 628.676,366.16 627,363.5C 625.056,364.688 623.556,366.354 622.5,368.5C 623.666,371.184 622.833,373.184 620,374.5C 619.506,376.134 619.34,377.801 619.5,379.5C 617.61,379.297 616.11,379.963 615,381.5C 613.363,385.292 611.53,388.959 609.5,392.5C 608.893,392.376 608.56,392.043 608.5,391.5C 611.11,386.614 613.443,381.614 615.5,376.5C 616.906,376.027 617.573,375.027 617.5,373.5C 624.824,360.855 632.157,348.188 639.5,335.5C 642.352,330.289 645.019,324.956 647.5,319.5C 652.565,311.716 657.398,303.716 662,295.5C 663.009,293.975 663.509,292.308 663.5,290.5C 664.728,289.694 665.728,288.694 666.5,287.5 Z"/></g>
<g><path style="opacity:1" fill="#bcfcfd" d="M 751.5,328.5 C 753.218,330.223 754.551,332.223 755.5,334.5C 752.956,333.292 751.622,331.292 751.5,328.5 Z"/></g>
<g><path style="opacity:1" fill="#bdfdfd" d="M 701.5,339.5 C 705.646,338.353 709.98,338.186 714.5,339C 716.596,339.737 718.263,340.903 719.5,342.5C 713.8,339.949 707.8,338.949 701.5,339.5 Z"/></g>
<g><path style="opacity:1" fill="#e2fdfb" d="M 596.5,332.5 C 595.297,336.479 593.963,340.479 592.5,344.5C 595.413,346.901 595.079,348.234 591.5,348.5C 591.715,346.821 591.048,345.821 589.5,345.5C 590.833,342.167 592.167,338.833 593.5,335.5C 594.728,334.694 595.728,333.694 596.5,332.5 Z"/></g>
<g><path style="opacity:1" fill="#e3fdfb" d="M 659.5,333.5 C 658.705,336.55 657.705,339.55 656.5,342.5C 659.308,346.077 658.308,348.077 653.5,348.5C 654.75,345.994 655.416,343.327 655.5,340.5C 656.079,337.669 657.412,335.336 659.5,333.5 Z"/></g>
<g><path style="opacity:1" fill="#08cfd5" d="M 701.5,339.5 C 707.8,338.949 713.8,339.949 719.5,342.5C 719.5,342.833 719.5,343.167 719.5,343.5C 720.345,347.353 722.679,350.019 726.5,351.5C 730.373,357.929 731.54,364.929 730,372.5C 728.183,375.316 726.017,377.816 723.5,380C 724.13,381.31 725.13,382.144 726.5,382.5C 726.5,383.167 726.167,383.5 725.5,383.5C 721.923,382.181 718.59,382.514 715.5,384.5C 717.991,385.541 717.991,386.374 715.5,387C 711.55,387.462 707.716,388.296 704,389.5C 698.179,386.899 692.845,383.566 688,379.5C 687.011,376.43 685.511,374.43 683.5,373.5C 679.464,356.985 685.464,345.652 701.5,339.5 Z"/></g>
<g><path style="opacity:1" fill="#34c4c5" d="M 719.5,343.5 C 726.078,347.072 730.411,352.405 732.5,359.5C 733.706,368.063 731.706,375.729 726.5,382.5C 725.13,382.144 724.13,381.31 723.5,380C 726.017,377.816 728.183,375.316 730,372.5C 731.54,364.929 730.373,357.929 726.5,351.5C 722.679,350.019 720.345,347.353 719.5,343.5 Z"/></g>
<g><path style="opacity:1" fill="#c8fdfd" d="M 273.5,344.5 C 272.872,347.09 271.705,349.423 270,351.5C 269.184,352.823 268.017,353.489 266.5,353.5C 267.72,351.718 268.386,349.718 268.5,347.5C 269.5,347.5 270.5,347.5 271.5,347.5C 271.285,345.821 271.952,344.821 273.5,344.5 Z"/></g>
<g><path style="opacity:1" fill="#d7fdfc" d="M 701.5,339.5 C 685.464,345.652 679.464,356.985 683.5,373.5C 684.576,376.648 685.909,379.648 687.5,382.5C 685.983,382.489 684.816,381.823 684,380.5C 683.134,376.193 682.134,375.86 681,379.5C 680.5,379 680,378.5 679.5,378C 680.334,374.753 680.334,371.419 679.5,368C 680.91,363.353 681.744,358.52 682,353.5C 683.274,349.894 685.607,347.227 689,345.5C 689.49,344.207 689.657,342.873 689.5,341.5C 693.538,341.042 697.538,340.376 701.5,339.5 Z"/></g>
<g><path style="opacity:1" fill="#c9fcfd" d="M 719.5,343.5 C 719.5,343.167 719.5,342.833 719.5,342.5C 722.805,344.117 726.138,345.783 729.5,347.5C 731.071,351.323 732.071,355.323 732.5,359.5C 730.411,352.405 726.078,347.072 719.5,343.5 Z"/></g>
<g><path style="opacity:1" fill="#38c1c1" d="M 593.5,335.5 C 592.167,338.833 590.833,342.167 589.5,345.5C 584.846,352.8 580.179,360.134 575.5,367.5C 578.078,359.058 582.245,351.391 588,344.5C 588.901,340.8 590.734,337.8 593.5,335.5 Z"/></g>
<g><path style="opacity:1" fill="#30c0c1" d="M 275.5,338.5 C 275.413,345.409 272.913,351.742 268,357.5C 262.448,357.538 256.448,357.538 250,357.5C 248.559,356.74 247.059,356.074 245.5,355.5C 244.571,354.311 244.238,352.978 244.5,351.5C 244.833,351.5 245.167,351.5 245.5,351.5C 248.614,354.963 252.614,356.63 257.5,356.5C 260.226,356.318 262.893,355.818 265.5,355C 266.056,354.617 266.389,354.117 266.5,353.5C 268.017,353.489 269.184,352.823 270,351.5C 271.705,349.423 272.872,347.09 273.5,344.5C 273.5,343.833 273.5,343.167 273.5,342.5C 274.167,341.167 274.833,339.833 275.5,338.5 Z"/></g>
<g><path style="opacity:1" fill="#cbfdfd" d="M 245.5,351.5 C 248.234,352.721 251.067,353.721 254,354.5C 258.137,353.763 262.303,353.429 266.5,353.5C 266.389,354.117 266.056,354.617 265.5,355C 262.893,355.818 260.226,356.318 257.5,356.5C 252.614,356.63 248.614,354.963 245.5,351.5 Z"/></g>
<g><path style="opacity:1" fill="#e5fdfc" d="M 589.5,345.5 C 589.822,347.722 589.155,349.556 587.5,351C 588.167,352 588.833,353 589.5,354C 586.936,355.062 585.269,356.896 584.5,359.5C 584.818,360.647 585.484,361.481 586.5,362C 585.667,362.833 584.833,363.667 584,364.5C 583.107,363.289 582.274,363.289 581.5,364.5C 580.404,368.703 577.904,371.703 574,373.5C 573.8,375.32 572.966,376.653 571.5,377.5C 572.387,373.96 573.721,370.627 575.5,367.5C 580.179,360.134 584.846,352.8 589.5,345.5 Z"/></g>
<g><path style="opacity:1" fill="#c7fcfc" d="M 639.5,335.5 C 632.157,348.188 624.824,360.855 617.5,373.5C 618.433,370.073 619.6,366.74 621,363.5C 626.777,354.946 631.777,345.946 636,336.5C 637.011,335.663 638.178,335.33 639.5,335.5 Z"/></g>
<g><path style="opacity:1" fill="#bffdfd" d="M 655.5,340.5 C 655.416,343.327 654.75,345.994 653.5,348.5C 650.93,356.84 649.93,365.507 650.5,374.5C 649.291,366.982 649.291,359.315 650.5,351.5C 650.5,350.833 650.5,350.167 650.5,349.5C 651.977,346.409 653.644,343.409 655.5,340.5 Z"/></g>
<g><path style="opacity:1" fill="#bcfbfc" d="M 755.5,334.5 C 764.115,347.451 766.948,361.785 764,377.5C 763.434,379.723 762.6,381.723 761.5,383.5C 761.298,381.011 761.798,378.677 763,376.5C 764.869,364.23 763.202,352.564 758,341.5C 756.795,340.929 755.628,340.262 754.5,339.5C 755.309,337.929 755.643,336.262 755.5,334.5 Z"/></g>
<g><path style="opacity:1" fill="#31c1c3" d="M 650.5,351.5 C 649.291,359.315 649.291,366.982 650.5,374.5C 651.345,380.706 653.012,386.706 655.5,392.5C 653.983,392.489 652.816,391.823 652,390.5C 651.002,385.009 649.502,379.675 647.5,374.5C 647.626,368.907 647.792,363.24 648,357.5C 648.002,354.949 648.836,352.949 650.5,351.5 Z"/></g>
<g><path style="opacity:1" fill="#e0fdfc" d="M 650.5,374.5 C 652.929,379.712 656.262,384.379 660.5,388.5C 658.914,390.173 658.247,392.173 658.5,394.5C 659.873,394.343 661.207,394.51 662.5,395C 661.62,396.356 661.286,397.856 661.5,399.5C 659.263,397.353 657.263,395.02 655.5,392.5C 653.012,386.706 651.345,380.706 650.5,374.5 Z"/></g>
<g><path style="opacity:1" fill="#d5fcfd" d="M 571.5,377.5 C 570.833,380.833 570.167,384.167 569.5,387.5C 568.5,387.5 567.5,387.5 566.5,387.5C 564.411,391.227 563.078,395.227 562.5,399.5C 561.5,399.5 560.5,399.5 559.5,399.5C 559.5,398.5 559.5,397.5 559.5,396.5C 563.561,391.395 566.894,385.729 569.5,379.5C 569.833,378.5 570.5,377.833 571.5,377.5 Z"/></g>
<g><path style="opacity:1" fill="#cdfcfd" d="M 732.5,359.5 C 733.648,363.981 733.815,368.648 733,373.5C 731.391,378.023 729.224,382.189 726.5,386C 722.117,387.799 717.783,389.799 713.5,392C 709.627,392.27 705.794,392.77 702,393.5C 699.09,391.284 695.923,389.451 692.5,388C 690.859,386.871 689.859,385.371 689.5,383.5C 701.514,392.78 713.514,392.78 725.5,383.5C 726.167,383.5 726.5,383.167 726.5,382.5C 731.706,375.729 733.706,368.063 732.5,359.5 Z"/></g>
<g><path style="opacity:1" fill="#c5fdfd" d="M 615.5,376.5 C 613.443,381.614 611.11,386.614 608.5,391.5C 608.167,391.5 607.833,391.5 607.5,391.5C 609.273,386.05 611.94,381.05 615.5,376.5 Z"/></g>
<g><path style="opacity:1" fill="#33c4c6" d="M 725.5,383.5 C 713.514,392.78 701.514,392.78 689.5,383.5C 688.508,383.672 687.842,383.338 687.5,382.5C 685.909,379.648 684.576,376.648 683.5,373.5C 685.511,374.43 687.011,376.43 688,379.5C 692.845,383.566 698.179,386.899 704,389.5C 707.716,388.296 711.55,387.462 715.5,387C 717.991,386.374 717.991,385.541 715.5,384.5C 718.59,382.514 721.923,382.181 725.5,383.5 Z"/></g>
<g><path style="opacity:1" fill="#befafb" d="M 761.5,383.5 C 761.657,384.873 761.49,386.207 761,387.5C 760.098,389.431 758.931,391.097 757.5,392.5C 757.343,391.127 757.51,389.793 758,388.5C 759.626,387.045 760.792,385.378 761.5,383.5 Z"/></g>
<g><path style="opacity:1" fill="#3dc0c1" d="M 569.5,379.5 C 566.894,385.729 563.561,391.395 559.5,396.5C 559.34,394.801 559.506,393.134 560,391.5C 562.698,388.09 565.031,384.424 567,380.5C 567.671,379.748 568.504,379.414 569.5,379.5 Z"/></g>
<g><path style="opacity:1" fill="#2fc3c5" d="M 751.5,328.5 C 751.5,328.167 751.5,327.833 751.5,327.5C 753.175,329.149 755.175,330.482 757.5,331.5C 765.931,349.294 767.931,368.294 763.5,388.5C 761.484,390.404 759.818,392.571 758.5,395C 758.833,395.333 759.167,395.667 759.5,396C 756.562,398.025 754.728,400.858 754,404.5C 753.667,404.167 753.333,403.833 753,403.5C 752.411,405.863 750.911,406.863 748.5,406.5C 750.11,404.208 751.776,401.875 753.5,399.5C 755.588,397.664 756.921,395.331 757.5,392.5C 758.931,391.097 760.098,389.431 761,387.5C 761.49,386.207 761.657,384.873 761.5,383.5C 762.6,381.723 763.434,379.723 764,377.5C 766.948,361.785 764.115,347.451 755.5,334.5C 754.551,332.223 753.218,330.223 751.5,328.5 Z"/></g>
<g><path style="opacity:1" fill="#c2fdfd" d="M 757.5,392.5 C 756.921,395.331 755.588,397.664 753.5,399.5C 753.149,396.188 754.482,393.855 757.5,392.5 Z"/></g>
<g><path style="opacity:1" fill="#bafefe" d="M 252.5,402.5 C 260.306,399.788 266.639,401.788 271.5,408.5C 268.139,407.316 265.139,405.483 262.5,403C 259.183,402.502 255.85,402.335 252.5,402.5 Z"/></g>
<g><path style="opacity:1" fill="#d6fdfd" d="M 607.5,392.5 C 604.099,398.209 600.766,403.876 597.5,409.5C 597.838,407.146 598.338,404.813 599,402.5C 601.276,400.282 602.776,397.615 603.5,394.5C 604.577,393.295 605.91,392.628 607.5,392.5 Z"/></g>
<g><path style="opacity:1" fill="#defefd" d="M 661.5,399.5 C 663.25,400.742 664.917,402.242 666.5,404C 668.135,404.54 669.468,404.04 670.5,402.5C 673.044,403.735 673.044,404.901 670.5,406C 671.337,407.011 671.67,408.178 671.5,409.5C 667.167,407.167 663.833,403.833 661.5,399.5 Z"/></g>
<g><path style="opacity:1" fill="#fcfdfd" d="M 252.5,402.5 C 255.85,402.335 259.183,402.502 262.5,403C 265.139,405.483 268.139,407.316 271.5,408.5C 273.294,424.077 273.961,439.744 273.5,455.5C 272.951,457.901 272.118,460.235 271,462.5C 269.871,464.141 268.371,465.141 266.5,465.5C 260.133,467.331 254.133,466.664 248.5,463.5C 248.17,460.891 246.67,459.224 244,458.5C 242.018,442.494 242.018,426.494 244,410.5C 246.372,408.297 248.539,405.963 250.5,403.5C 250.842,402.662 251.508,402.328 252.5,402.5 Z"/></g>
<g><path style="opacity:1" fill="#d4fdfd" d="M 675.5,412.5 C 677.527,412.338 679.527,412.505 681.5,413C 682.337,414.011 682.67,415.178 682.5,416.5C 685.568,416.547 688.568,417.047 691.5,418C 692.942,418.377 693.942,419.21 694.5,420.5C 687.256,419.759 680.922,417.092 675.5,412.5 Z"/></g>
<g><path style="opacity:1" fill="#b9fdfe" d="M 744.5,408.5 C 741.81,411.185 738.81,413.518 735.5,415.5C 735.281,414.325 735.614,413.325 736.5,412.5C 739.22,411.14 741.886,409.807 744.5,408.5 Z"/></g>
<g><path style="opacity:1" fill="#c2fcfc" d="M 558.5,400.5 C 556.811,405.556 554.811,410.556 552.5,415.5C 552.608,416.442 552.941,417.275 553.5,418C 555,418.5 556.5,419 558,419.5C 567.799,418.703 577.632,418.203 587.5,418C 588.833,417.333 590.167,416.667 591.5,416C 593.117,413.389 595.117,411.222 597.5,409.5C 596.37,411.315 595.704,413.315 595.5,415.5C 593.331,417.636 590.664,419.136 587.5,420C 576.833,420.667 566.167,420.667 555.5,420C 553.671,419.727 552.171,418.893 551,417.5C 550.674,414.668 551.174,412.001 552.5,409.5C 554.252,406.328 556.252,403.328 558.5,400.5 Z"/></g>
<g><path style="opacity:1" fill="#dafefe" d="M 250.5,403.5 C 248.539,405.963 246.372,408.297 244,410.5C 242.018,426.494 242.018,442.494 244,458.5C 246.67,459.224 248.17,460.891 248.5,463.5C 247.833,463.5 247.167,463.5 246.5,463.5C 243.658,461.156 241.825,458.156 241,454.5C 240.333,441.5 240.333,428.5 241,415.5C 242.148,409.857 245.315,405.857 250.5,403.5 Z"/></g>
<g><path style="opacity:1" fill="#28c5c5" d="M 552.5,409.5 C 551.174,412.001 550.674,414.668 551,417.5C 552.171,418.893 553.671,419.727 555.5,420C 566.167,420.667 576.833,420.667 587.5,420C 590.664,419.136 593.331,417.636 595.5,415.5C 595.716,417.681 594.883,419.347 593,420.5C 592.667,420.167 592.333,419.833 592,419.5C 590.829,420.893 589.329,421.727 587.5,422C 578.173,422.5 568.839,422.666 559.5,422.5C 559.719,423.675 559.386,424.675 558.5,425.5C 556.085,422.92 553.251,420.92 550,419.5C 547.768,415.343 548.602,412.01 552.5,409.5 Z"/></g>
<g><path style="opacity:1" fill="#2dc2c7" d="M 655.5,392.5 C 657.263,395.02 659.263,397.353 661.5,399.5C 663.833,403.833 667.167,407.167 671.5,409.5C 672.262,411.262 673.596,412.262 675.5,412.5C 680.922,417.092 687.256,419.759 694.5,420.5C 695.263,421.268 696.263,421.768 697.5,422C 700.833,422.167 704.167,422.333 707.5,422.5C 712.437,422.7 717.104,422.033 721.5,420.5C 721.833,420.5 722.167,420.5 722.5,420.5C 727.017,419.903 731.017,418.237 734.5,415.5C 734.833,415.5 735.167,415.5 735.5,415.5C 735.439,418.05 734.106,419.55 731.5,420C 725.792,421.177 720.126,422.51 714.5,424C 694.022,426.059 676.356,419.726 661.5,405C 659.754,404.529 658.087,403.862 656.5,403C 658.891,402.309 658.891,401.309 656.5,400C 657.022,399.439 657.355,398.772 657.5,398C 656.115,396.403 655.449,394.57 655.5,392.5 Z"/></g>
<g><path style="opacity:1" fill="#bdfbfd" d="M 694.5,420.5 C 703.5,420.5 712.5,420.5 721.5,420.5C 717.104,422.033 712.437,422.7 707.5,422.5C 704.167,422.333 700.833,422.167 697.5,422C 696.263,421.768 695.263,421.268 694.5,420.5 Z"/></g>
<g><path style="opacity:1" fill="#c8fefe" d="M 734.5,415.5 C 731.017,418.237 727.017,419.903 722.5,420.5C 722.825,418.868 723.825,417.868 725.5,417.5C 728.327,416.068 731.327,415.401 734.5,415.5 Z"/></g>
<g><path style="opacity:1" fill="#c5fdfe" d="M 271.5,408.5 C 271.833,408.5 272.167,408.5 272.5,408.5C 275.34,422.682 276.174,437.015 275,451.5C 274.79,453.058 274.29,454.391 273.5,455.5C 273.961,439.744 273.294,424.077 271.5,408.5 Z"/></g>
<g><path style="opacity:1" fill="#23c8cb" d="M 272.5,408.5 C 273.712,409.23 274.712,410.23 275.5,411.5C 276.271,415.424 277.271,419.257 278.5,423C 277.167,432.333 277.167,441.667 278.5,451C 276.509,453.996 276.509,456.829 278.5,459.5C 277.863,462.107 276.696,464.44 275,466.5C 274,467.833 273,467.833 272,466.5C 271.51,467.793 271.343,469.127 271.5,470.5C 269.226,470.285 267.059,469.618 265,468.5C 260.862,469.497 256.696,469.664 252.5,469C 251.944,468.617 251.611,468.117 251.5,467.5C 256.914,469.199 261.914,468.533 266.5,465.5C 268.371,465.141 269.871,464.141 271,462.5C 272.118,460.235 272.951,457.901 273.5,455.5C 274.29,454.391 274.79,453.058 275,451.5C 276.174,437.015 275.34,422.682 272.5,408.5 Z"/></g>
<g><path style="opacity:1" fill="#c2fcfd" d="M 246.5,463.5 C 247.167,463.5 247.833,463.5 248.5,463.5C 254.133,466.664 260.133,467.331 266.5,465.5C 261.914,468.533 256.914,469.199 251.5,467.5C 249.651,466.407 247.984,465.074 246.5,463.5 Z"/></g>
<g><path style="opacity:1" fill="#be7d85" d="M 213.5,61.5 C 214.338,61.8417 214.672,62.5084 214.5,63.5C 214.313,221.168 214.646,378.835 215.5,536.5C 214.263,537.965 213.263,539.632 212.5,541.5C 211.5,542.167 210.5,542.833 209.5,543.5C 209.975,541.216 210.975,539.216 212.5,537.5C 213.5,379.001 213.833,220.334 213.5,61.5 Z"/></g>
<g><path style="opacity:1" fill="#6da1a8" d="M 214.5,63.5 C 215.167,63.5 215.5,63.8333 215.5,64.5C 215.333,193.167 215.5,321.834 216,450.5C 216.168,478.003 216.668,505.336 217.5,532.5C 217.34,534.153 216.674,535.486 215.5,536.5C 214.646,378.835 214.313,221.168 214.5,63.5 Z"/></g>
<g><path style="opacity:1" fill="#d1fefc" d="M 244.5,514.5 C 242.072,515.719 239.739,517.219 237.5,519C 236.207,519.49 234.873,519.657 233.5,519.5C 236.289,516.117 239.955,514.45 244.5,514.5 Z"/></g>
<g><path style="opacity:1" fill="#c7fcfd" d="M 287.5,522.5 C 287.5,522.833 287.5,523.167 287.5,523.5C 282.768,521.304 278.102,518.804 273.5,516C 268.716,515.654 264.05,514.82 259.5,513.5C 254.526,514.255 249.526,514.589 244.5,514.5C 260.123,509.546 274.456,512.213 287.5,522.5 Z"/></g>
<g><path style="opacity:1" fill="#d17880" d="M 38.5,516.5 C 40.6418,519.8 41.9751,523.467 42.5,527.5C 41.8333,526.5 41.1667,525.5 40.5,524.5C 39.2504,521.994 38.5838,519.327 38.5,516.5 Z"/></g>
<g><path style="opacity:1" fill="#befdfc" d="M 233.5,519.5 C 230.461,522.54 227.127,525.206 223.5,527.5C 225.918,523.755 229.251,521.088 233.5,519.5 Z"/></g>
<g><path style="opacity:1" fill="#c9fcfc" d="M 963.5,507.5 C 964.072,515.234 961.739,521.901 956.5,527.5C 957.885,524.341 958.885,521.008 959.5,517.5C 960.117,517.389 960.617,517.056 961,516.5C 961.406,513.258 962.239,510.258 963.5,507.5 Z"/></g>
<g><path style="opacity:1" fill="#fcdee0" d="M 40.5,524.5 C 41.1667,525.5 41.8333,526.5 42.5,527.5C 42.8333,527.5 43.1667,527.5 43.5,527.5C 43.7036,529.685 44.3702,531.685 45.5,533.5C 43.5669,532.358 42.0669,530.692 41,528.5C 40.51,527.207 40.3433,525.873 40.5,524.5 Z"/></g>
<g><path style="opacity:1" fill="#da747b" d="M 43.5,527.5 C 45.0931,528.348 46.2597,529.681 47,531.5C 47.4828,532.448 47.6495,533.448 47.5,534.5C 46.8333,534.167 46.1667,533.833 45.5,533.5C 44.3702,531.685 43.7036,529.685 43.5,527.5 Z"/></g>
<g><path style="opacity:1" fill="#cefafc" d="M 291.5,527.5 C 294.534,528.872 296.534,531.206 297.5,534.5C 294.054,533.388 292.054,531.055 291.5,527.5 Z"/></g>
<g><path style="opacity:1" fill="#dafdfd" d="M 956.5,527.5 C 955.749,535.295 951.749,540.628 944.5,543.5C 948.916,538.426 952.916,533.092 956.5,527.5 Z"/></g>
<g><path style="opacity:1" fill="#d67379" d="M 47.5,535.5 C 51.1225,537.122 53.7892,539.789 55.5,543.5C 52.4728,541.14 49.8062,538.473 47.5,535.5 Z"/></g>
<g><path style="opacity:1" fill="#cffcfc" d="M 297.5,534.5 C 301.803,539.809 306.137,545.142 310.5,550.5C 308.405,549.588 306.405,548.421 304.5,547C 303.663,545.989 303.33,544.822 303.5,543.5C 302.5,543.5 301.5,543.5 300.5,543.5C 299.172,540.644 298.172,537.644 297.5,534.5 Z"/></g>
<g><path style="opacity:1" fill="#c97684" d="M 209.5,543.5 C 209.573,545.027 208.906,546.027 207.5,546.5C 207.285,544.821 207.952,543.821 209.5,543.5 Z"/></g>
<g><path style="opacity:1" fill="#e2707d" d="M 55.5,543.5 C 57.3716,544.511 59.3716,545.345 61.5,546C 62.8228,546.816 63.4894,547.983 63.5,549.5C 59.9796,548.647 57.3129,546.647 55.5,543.5 Z"/></g>
<g><path style="opacity:1" fill="#fdebe9" d="M 212.5,541.5 C 212.034,543.201 212.034,544.701 212.5,546C 211.299,546.903 210.465,548.069 210,549.5C 207.349,551.129 204.182,552.462 200.5,553.5C 200.5,553.167 200.5,552.833 200.5,552.5C 201.5,551.833 202.5,551.167 203.5,550.5C 205.167,549.5 206.5,548.167 207.5,546.5C 208.906,546.027 209.573,545.027 209.5,543.5C 210.5,542.833 211.5,542.167 212.5,541.5 Z"/></g>
<g><path style="opacity:1" fill="#db7376" d="M 207.5,546.5 C 206.5,548.167 205.167,549.5 203.5,550.5C 203.5,549.167 203.5,547.833 203.5,546.5C 204.833,546.5 206.167,546.5 207.5,546.5 Z"/></g>
<g><path style="opacity:1" fill="#dd7a7f" d="M 63.5,549.5 C 68.1256,551.476 72.7923,553.476 77.5,555.5C 78.1667,556.167 78.8333,556.833 79.5,557.5C 73.9579,556.063 68.6246,554.063 63.5,551.5C 63.5,550.833 63.5,550.167 63.5,549.5 Z"/></g>
<g><path style="opacity:1" fill="#e3fdfd" d="M 943.5,544.5 C 943.649,545.552 943.483,546.552 943,547.5C 941.075,548.88 939.241,550.38 937.5,552C 938.731,553.183 938.731,554.349 937.5,555.5C 934.974,556.463 932.141,556.463 929,555.5C 927.225,556.27 925.725,557.437 924.5,559C 919.075,561.08 913.408,562.246 907.5,562.5C 907.5,562.167 907.5,561.833 907.5,561.5C 909.483,561.843 910.817,561.176 911.5,559.5C 923.612,557.574 934.279,552.574 943.5,544.5 Z"/></g>
<g><path style="opacity:1" fill="#da747d" d="M 200.5,552.5 C 200.5,552.833 200.5,553.167 200.5,553.5C 199.833,553.833 199.167,554.167 198.5,554.5C 196.287,555.773 193.954,556.773 191.5,557.5C 193.141,555.742 195.141,554.242 197.5,553C 198.448,552.517 199.448,552.351 200.5,552.5 Z"/></g>
<g><path style="opacity:1" fill="#fdeaea" d="M 63.5,551.5 C 68.6246,554.063 73.9579,556.063 79.5,557.5C 79.5,557.833 79.5,558.167 79.5,558.5C 74.1406,557.478 68.8072,556.478 63.5,555.5C 63.5,554.167 63.5,552.833 63.5,551.5 Z"/></g>
<g><path style="opacity:1" fill="#bafbfc" d="M 311.5,550.5 C 314.283,553.427 317.616,555.427 321.5,556.5C 321.5,556.833 321.5,557.167 321.5,557.5C 318.986,557.246 316.652,556.413 314.5,555C 312.859,553.871 311.859,552.371 311.5,550.5 Z"/></g>
<g><path style="opacity:1" fill="#f7646a" d="M 77.5,555.5 C 79.9267,555.523 82.26,556.023 84.5,557C 109.853,556.841 134.853,557.674 159.5,559.5C 135.831,559.667 112.164,559.5 88.5,559C 85.5219,558.304 82.5219,557.804 79.5,557.5C 78.8333,556.833 78.1667,556.167 77.5,555.5 Z"/></g>
<g><path style="opacity:1" fill="#13c8d3" d="M 847.5,559.5 C 698.334,559.847 549.001,559.847 399.5,559.5C 496.012,557.827 592.845,556.827 690,556.5C 692.021,556.673 693.854,557.34 695.5,558.5C 746.162,559.5 796.829,559.833 847.5,559.5 Z"/></g>
<g><path style="opacity:1" fill="#d4747a" d="M 79.5,558.5 C 79.5,558.167 79.5,557.833 79.5,557.5C 82.5219,557.804 85.5219,558.304 88.5,559C 112.164,559.5 135.831,559.667 159.5,559.5C 159.5,559.833 159.5,560.167 159.5,560.5C 135.498,560.667 111.498,560.5 87.5,560C 84.8323,559.433 82.1656,558.933 79.5,558.5 Z"/></g>
<g><path style="opacity:1" fill="#d9737a" d="M 191.5,557.5 C 181.186,561.126 170.519,562.126 159.5,560.5C 159.5,560.167 159.5,559.833 159.5,559.5C 170.231,559.639 180.898,558.972 191.5,557.5 Z"/></g>
<g><path style="opacity:1" fill="#3ab9bd" d="M 321.5,557.5 C 321.5,557.167 321.5,556.833 321.5,556.5C 327.603,557.574 333.936,558.741 340.5,560C 357.83,560.5 375.163,560.667 392.5,560.5C 375.005,561.662 357.338,561.829 339.5,561C 333.583,560.883 327.916,559.716 322.5,557.5C 322.167,557.5 321.833,557.5 321.5,557.5 Z"/></g>
<g><path style="opacity:1" fill="#37b7bd" d="M 393.5,560.5 C 395.265,559.539 397.265,559.205 399.5,559.5C 549.001,559.847 698.334,559.847 847.5,559.5C 868.5,559.5 889.5,559.5 910.5,559.5C 891.833,560.167 873.167,560.833 854.5,561.5C 700.834,560.858 547.167,560.524 393.5,560.5 Z"/></g>
<g><path style="opacity:1" fill="#9df9fd" d="M 910.5,559.5 C 910.833,559.5 911.167,559.5 911.5,559.5C 910.817,561.176 909.483,561.843 907.5,561.5C 889.833,561.5 872.167,561.5 854.5,561.5C 873.167,560.833 891.833,560.167 910.5,559.5 Z"/></g>
<g><path style="opacity:1" fill="#ffe1e3" d="M 198.5,554.5 C 198.586,555.496 198.252,556.329 197.5,557C 192.944,558.972 188.278,560.639 183.5,562C 151.5,562.667 119.5,562.667 87.5,562C 85.3018,561.627 83.1351,561.127 81,560.5C 79.9701,560.164 79.4701,559.497 79.5,558.5C 82.1656,558.933 84.8323,559.433 87.5,560C 111.498,560.5 135.498,560.667 159.5,560.5C 170.519,562.126 181.186,561.126 191.5,557.5C 193.954,556.773 196.287,555.773 198.5,554.5 Z"/></g>
<g><path style="opacity:1" fill="#c1fdfe" d="M 322.5,557.5 C 327.916,559.716 333.583,560.883 339.5,561C 357.338,561.829 375.005,561.662 392.5,560.5C 392.833,560.5 393.167,560.5 393.5,560.5C 547.167,560.524 700.834,560.858 854.5,561.5C 872.167,561.5 889.833,561.5 907.5,561.5C 907.5,561.833 907.5,562.167 907.5,562.5C 714.833,562.667 522.166,562.5 329.5,562C 326.743,561.062 324.41,559.562 322.5,557.5 Z"/></g>
</svg>
