<svg xmlns="http://www.w3.org/2000/svg" width="123.053" height="175.203" viewBox="0 0 123.053 175.203">
  <g id="feature6" data-name="feature6" transform="translate(580.92 -421.269)">
    <path id="Path_15" data-name="Path 15" d="M42.526,1320.583A14.42,14.42,0,0,1,37,1309.245c-.014-8.139-.008-16.3-.021-24.433a169.731,169.731,0,0,1-.511-18.162c.242-34.541-.484-69.164.27-103.674a14.494,14.494,0,0,1,4.927-9.23,14.894,14.894,0,0,1,8.058-4.2c31.266-.579,62.616-.029,93.935-.2a16.033,16.033,0,0,1,6.521,1.587c6.006,2.889,9.028,9.592,8.431,16.044-.124,47.241,1.416,94.464.575,141.71-.492,5.758-3.626,11.193-8.9,13.746a13.09,13.09,0,0,1-5.9,1.432c-9.426.022-18.862.011-28.286.023a120.872,120.872,0,0,1-12.888.514c-17.425-.235-34.953.48-52.343-.3a17.171,17.171,0,0,1-8.292-3.472Zm102.6-36.945c1.276-34.74.026-69.9.451-104.678a5.517,5.517,0,0,0-.937-3.744,5.077,5.077,0,0,0-3.565-1.365q-43.237-.114-86.5,0c-2.762.1-4.262,2.219-4.33,4.852q-.146,51.174-.015,102.383a5.852,5.852,0,0,0,1.038,3.489,3.624,3.624,0,0,0,2.606,1.057c28.881.1,57.776,0,86.654.034,1.723.042,3.867-.27,4.574-1.966Zm-43.406,27.7a8,8,0,0,0,2.034-1.633,9.264,9.264,0,0,0,2.417-3.72,8.763,8.763,0,0,0-3.6-9.384c-2.725-1.956-4.9-2.154-7.963-.792a7.767,7.767,0,0,0-4.236,4.144,9.6,9.6,0,0,0-.471,3.658c-.632,6.337,6.28,10.468,11.763,7.76Zm-18.554-148.2c.625,1.027,2.094,1.173,3.259,1.249,7.646-.031,15.335.15,22.958-.087,4.444-.3,4.9-5.135.278-5.537-7.67-.126-15.36-.016-23.048-.038a5.186,5.186,0,0,0-3.094.761,3.053,3.053,0,0,0-.384,3.6Z" transform="translate(-617.304 -727.999)" fill="#00d1d6"/>
    <path id="Path_16" data-name="Path 16" d="M72.788,1204.231a20.125,20.125,0,0,1,20.514-.354,8.841,8.841,0,0,0,4.4,1.463c1.791-.061,3.257-1.24,4.878-1.851a26.757,26.757,0,0,1,7.861-1.855c4.479-.4,8.956.069,12.7,2.761a29.282,29.282,0,0,1,5.629,5.823c1.909,3.05,3.68,6.095,4.418,9.613.642,2.565.995,5.481-.832,7.647a6.59,6.59,0,0,1-2.5,1.566,12.9,12.9,0,0,1-5.483,1.2,26.636,26.636,0,0,0-6.395.553,26.326,26.326,0,0,1-4.391.187,5.118,5.118,0,0,1-3.927-1.2,9.184,9.184,0,0,1-1.39-2.029c-1.059-2.022-2.148-4.09-3.1-6.206-1.121-3.039-3.83-4.485-5.968-1.443-1.867,2.465-2.775,5.422-4.536,7.952-1.073,1.584-1.651,3.538-3.069,4.855-1.115,1.061-2.552.39-3.6-.456a28.4,28.4,0,0,0-2.936-1.819c-1.078-.608-2.087-1.367-3.2-1.9a22.122,22.122,0,0,0-5.387-1.436c-3-.251-6.047-.091-9.063-.077-2.151.2-4.729,1-5.12-1.887-.181-3.052-.307-6.369.9-9.243a21.778,21.778,0,0,1,9.54-11.834Z" transform="translate(-617.304 -727.999)" fill="#ff6168"/>
    <path id="Path_17" data-name="Path 17" d="M104,1230.85c1.314,2,2.724,4.37,5.367,4.582,5.155.37,10.392.074,15.557.188,8.561.057,1.553,7.012-1.142,10.047a36.78,36.78,0,0,1-4.328,4.8c-1.194,1.081-2.536,2.012-3.75,3.1a83.705,83.705,0,0,1-8.529,6.287c-1.439.905-2.894,1.574-4.365,2.312-2.816,1.755-4.724,2.8-8.023,1.341a129.073,129.073,0,0,1-11.87-7.451,96.906,96.906,0,0,1-8.653-7.571c-3.086-3.688-6.315-7.5-8.613-11.7-1.886-4.7,5.177-4.722,8.152-4.166a16.147,16.147,0,0,1,11.015,5.127c1.55,1.334,2.574,3.266,4.155,4.507,2.162,1.494,3.874-.885,4.729-2.647.858-1.442,1.8-2.97,2.693-4.466.78-1.4,1.59-2.725,2.367-4.119,1.391-2.7,3.355-2.828,5.2-.223Z" transform="translate(-617.304 -727.999)" fill="#ff6168"/>
  </g>
</svg>
