<svg xmlns="http://www.w3.org/2000/svg" width="222.982" height="130.787" viewBox="0 0 222.982 130.787">
  <g id="feature5" data-name="feature5" transform="translate(1389.344 -536.478)">
    <path id="Path_18" data-name="Path 18" d="M771.576,1301.576c-3.678-18.495,12.985-36.755,29.085-44.488,27.408-10.207,63.986-8.059,83.049,16.6,3.477,5.26,13.944,24.557,6.389,28.257-39.411-.066-79.184.962-118.523-.371" transform="translate(-2109.304 -634.999)" fill="#00d1d6"/>
    <path id="Path_19" data-name="Path 19" d="M846.721,1175.819c34.717,21.933,2.772,72.7-32.138,50.664-30.915-21.909-.742-69.575,32.138-50.664" transform="translate(-2109.304 -634.999)" fill="#ff6168"/>
    <path id="Path_20" data-name="Path 20" d="M781.359,1176.556c27.262,20.879-4.381,60.864-31.053,38.791-22.669-20.88,5.545-56.658,31.053-38.791" transform="translate(-2109.304 -634.999)" fill="#ff6168"/>
    <path id="Path_21" data-name="Path 21" d="M899.62,1221.474c-32.693,3.51-37.844-45.265-5.421-49.515,32.082-2.265,37.711,45,5.421,49.515" transform="translate(-2109.304 -634.999)" fill="#ff6168"/>
    <path id="Path_22" data-name="Path 22" d="M901.627,1241.7c11.744.557,22.577,6.194,30.981,14.224,6.07,6.451,16.634,17.878,5.351,24.825-8.986,3.434-19.338,1.585-28.732,2.9-12.518-1.4-16.137-17.965-26.6-24.869-3.383-3.454-9.72-5.313-11.4-9.783,1.924-6.455,24.322-8.38,30.409-7.3" transform="translate(-2109.304 -634.999)" fill="#00d1d6"/>
    <path id="Path_23" data-name="Path 23" d="M752.447,1282.217a118.536,118.536,0,0,1-27.6-.015c-16.94-11.191,14.7-35.519,26.34-38.467,12.475-2.629,29.632-2.974,40.548,3.924a3.017,3.017,0,0,1-.878,4.527c-5.46,3.317-10.2,7.494-15.295,11.27-4.282,5.144-9.072,10.188-12.374,16.1-2.391,3.566-7.271,1.561-10.738,2.663" transform="translate(-2109.304 -634.999)" fill="#00d1d6"/>
  </g>
</svg>
